<svg xmlns="http://www.w3.org/2000/svg" xmlns:xlink="http://www.w3.org/1999/xlink" width="500" zoomAndPan="magnify" viewBox="0 0 375 225" height="300" preserveAspectRatio="xMidYMid meet" version="1.0"><defs><g/><clipPath id="87198ec766"><path d="M 66.742188 67.871094 L 308.226562 67.871094 L 308.226562 148.871094 L 66.742188 148.871094 Z M 66.742188 67.871094 " clip-rule="nonzero"/></clipPath><clipPath id="daad11474f"><path d="M 96.816406 139.878906 L 278.183594 139.878906 L 278.183594 157.128906 L 96.816406 157.128906 Z M 96.816406 139.878906 " clip-rule="nonzero"/></clipPath></defs><rect x="-37.5" width="450" fill="#ffffff" y="-22.5" height="270" fill-opacity="1"/><rect x="-37.5" width="450" fill="#fbfaf9" y="-22.5" height="270" fill-opacity="1"/><g clip-path="url(#87198ec766)"><path stroke-linecap="butt" transform="matrix(0.749927, 0, 0, 0.753488, 66.741369, 67.870649)" fill="none" stroke-linejoin="miter" d="M 0.00109115 0.000590557 L 322.011524 0.000590557 L 322.011524 107.500601 L 0.00109115 107.500601 Z M 0.00109115 0.000590557 " stroke="#060606" stroke-width="2" stroke-opacity="1" stroke-miterlimit="4"/></g><g fill="#060606" fill-opacity="1"><g transform="translate(97.986873, 119.788649)"><g><path d="M 10.921875 -25.3125 C 10.046875 -25.269531 9.40625 -25.171875 9 -25.015625 C 8.59375 -24.867188 8.316406 -24.585938 8.171875 -24.171875 C 8.023438 -23.753906 7.953125 -23.082031 7.953125 -22.15625 L 7.953125 -3.90625 C 7.953125 -2.96875 8.023438 -2.289062 8.171875 -1.875 C 8.316406 -1.457031 8.59375 -1.175781 9 -1.03125 C 9.40625 -0.882812 10.046875 -0.785156 10.921875 -0.734375 L 10.921875 0 C 9.796875 -0.0703125 8.238281 -0.109375 6.25 -0.109375 C 4.144531 -0.109375 2.578125 -0.0703125 1.546875 0 L 1.546875 -0.734375 C 2.429688 -0.785156 3.070312 -0.882812 3.46875 -1.03125 C 3.875 -1.175781 4.148438 -1.457031 4.296875 -1.875 C 4.453125 -2.289062 4.53125 -2.96875 4.53125 -3.90625 L 4.53125 -22.15625 C 4.53125 -23.082031 4.453125 -23.753906 4.296875 -24.171875 C 4.148438 -24.585938 3.875 -24.867188 3.46875 -25.015625 C 3.070312 -25.171875 2.429688 -25.269531 1.546875 -25.3125 L 1.546875 -26.046875 C 2.578125 -25.972656 4.144531 -25.9375 6.25 -25.9375 C 8.21875 -25.9375 9.773438 -25.972656 10.921875 -26.046875 Z M 10.921875 -25.3125 "/></g></g></g><g fill="#060606" fill-opacity="1"><g transform="translate(109.356523, 119.788649)"><g><path d="M 6.984375 -18.90625 L 12.4375 -18.90625 L 12.4375 -18.171875 L 6.984375 -18.171875 L 6.984375 -3.9375 C 6.984375 -2.832031 7.1875 -2.035156 7.59375 -1.546875 C 8 -1.054688 8.582031 -0.8125 9.34375 -0.8125 C 10.101562 -0.8125 10.753906 -1.117188 11.296875 -1.734375 C 11.835938 -2.347656 12.289062 -3.351562 12.65625 -4.75 L 13.390625 -4.5625 C 12.773438 -1.175781 11.179688 0.515625 8.609375 0.515625 C 7.773438 0.515625 7.085938 0.414062 6.546875 0.21875 C 6.003906 0.0195312 5.523438 -0.285156 5.109375 -0.703125 C 4.578125 -1.242188 4.203125 -1.90625 3.984375 -2.6875 C 3.773438 -3.46875 3.671875 -4.519531 3.671875 -5.84375 L 3.671875 -18.171875 L 0.140625 -18.171875 L 0.140625 -18.90625 L 3.671875 -18.90625 L 3.671875 -24.546875 C 5.046875 -24.585938 6.148438 -24.757812 6.984375 -25.0625 Z M 6.984375 -18.90625 "/></g></g></g><g fill="#060606" fill-opacity="1"><g transform="translate(121.278118, 119.788649)"><g><path d="M 4.34375 -26.5625 C 5.300781 -26.5625 6.023438 -26.171875 6.515625 -25.390625 C 6.929688 -24.722656 7.140625 -23.914062 7.140625 -22.96875 C 7.140625 -21.738281 6.828125 -20.628906 6.203125 -19.640625 C 5.578125 -18.660156 4.625 -17.878906 3.34375 -17.296875 L 3.015625 -17.953125 C 3.773438 -18.273438 4.429688 -18.78125 4.984375 -19.46875 C 5.535156 -20.15625 5.8125 -20.851562 5.8125 -21.5625 C 5.8125 -21.851562 5.773438 -22.109375 5.703125 -22.328125 C 5.304688 -22.015625 4.851562 -21.859375 4.34375 -21.859375 C 3.675781 -21.859375 3.113281 -22.070312 2.65625 -22.5 C 2.207031 -22.925781 1.984375 -23.5 1.984375 -24.21875 C 1.984375 -24.875 2.207031 -25.425781 2.65625 -25.875 C 3.113281 -26.332031 3.675781 -26.5625 4.34375 -26.5625 Z M 4.34375 -26.5625 "/></g></g></g><g fill="#060606" fill-opacity="1"><g transform="translate(129.18896, 119.788649)"><g><path d="M 7.65625 -19.46875 C 8.539062 -19.46875 9.320312 -19.332031 10 -19.0625 C 10.6875 -18.789062 11.242188 -18.472656 11.671875 -18.109375 C 11.929688 -17.910156 12.148438 -17.8125 12.328125 -17.8125 C 12.765625 -17.8125 13.035156 -18.347656 13.140625 -19.421875 L 13.984375 -19.421875 C 13.878906 -18.222656 13.828125 -16.140625 13.828125 -13.171875 L 12.984375 -13.171875 C 12.710938 -14.796875 12.191406 -16.132812 11.421875 -17.1875 C 10.648438 -18.238281 9.503906 -18.765625 7.984375 -18.765625 C 7.097656 -18.765625 6.375 -18.507812 5.8125 -18 C 5.25 -17.5 4.96875 -16.8125 4.96875 -15.9375 C 4.96875 -15.070312 5.257812 -14.351562 5.84375 -13.78125 C 6.4375 -13.207031 7.382812 -12.515625 8.6875 -11.703125 C 8.90625 -11.578125 9.234375 -11.367188 9.671875 -11.078125 C 10.804688 -10.335938 11.71875 -9.6875 12.40625 -9.125 C 13.09375 -8.5625 13.648438 -7.910156 14.078125 -7.171875 C 14.503906 -6.441406 14.71875 -5.597656 14.71875 -4.640625 C 14.71875 -3.015625 14.109375 -1.75 12.890625 -0.84375 C 11.679688 0.0625 10.191406 0.515625 8.421875 0.515625 C 7.316406 0.515625 6.347656 0.34375 5.515625 0 C 4.972656 -0.269531 4.472656 -0.601562 4.015625 -1 C 3.910156 -1.09375 3.796875 -1.140625 3.671875 -1.140625 C 3.503906 -1.140625 3.351562 -1.015625 3.21875 -0.765625 C 3.082031 -0.523438 2.976562 -0.1875 2.90625 0.25 L 2.0625 0.25 C 2.15625 -1.144531 2.203125 -3.597656 2.203125 -7.109375 L 3.046875 -7.109375 C 3.316406 -4.796875 3.804688 -3.066406 4.515625 -1.921875 C 5.234375 -0.785156 6.453125 -0.21875 8.171875 -0.21875 C 9.023438 -0.21875 9.78125 -0.5 10.4375 -1.0625 C 11.101562 -1.625 11.4375 -2.507812 11.4375 -3.71875 C 11.4375 -4.675781 11.113281 -5.484375 10.46875 -6.140625 C 9.820312 -6.804688 8.757812 -7.601562 7.28125 -8.53125 C 6.082031 -9.289062 5.15625 -9.914062 4.5 -10.40625 C 3.851562 -10.90625 3.304688 -11.507812 2.859375 -12.21875 C 2.421875 -12.925781 2.203125 -13.757812 2.203125 -14.71875 C 2.203125 -16.257812 2.71875 -17.4375 3.75 -18.25 C 4.78125 -19.0625 6.082031 -19.46875 7.65625 -19.46875 Z M 7.65625 -19.46875 "/></g></g></g><g fill="#060606" fill-opacity="1"><g transform="translate(204.183918, 126.619273)"><g><path d="M 12.9375 12.453125 C 11.550781 12.984375 10.570312 12.570312 10 11.21875 C 9.59375 10.15625 9.550781 9.035156 9.875 7.859375 C 10.238281 6.140625 11.015625 4.296875 12.203125 2.328125 C 13.109375 1.023438 13.804688 0.0664062 14.296875 -0.546875 C 17.804688 -5.046875 20.546875 -8.300781 22.515625 -10.3125 C 22.753906 -10.632812 22.914062 -11.039062 23 -11.53125 C 23.375 -13.945312 23.519531 -16.875 23.4375 -20.3125 C 23.4375 -21.488281 23.351562 -22.550781 23.1875 -23.5 C 23.101562 -24.03125 22.976562 -24.5 22.8125 -24.90625 C 22.613281 -25.269531 22.269531 -25.429688 21.78125 -25.390625 C 21.53125 -25.347656 21.203125 -25.207031 20.796875 -24.96875 C 20.054688 -24.4375 19.421875 -23.90625 18.890625 -23.375 C 18.484375 -22.96875 18.066406 -22.535156 17.640625 -22.078125 C 17.210938 -21.628906 16.71875 -21.117188 16.15625 -20.546875 C 15.601562 -19.972656 15.1875 -19.523438 14.90625 -19.203125 C 13.0625 -17.273438 11.425781 -15.679688 10 -14.421875 C 8.769531 -13.359375 7.785156 -12.617188 7.046875 -12.203125 C 6.441406 -11.878906 5.707031 -11.613281 4.84375 -11.40625 C 3.613281 -11.25 2.632812 -11.679688 1.90625 -12.703125 C 1.570312 -13.191406 1.304688 -13.785156 1.109375 -14.484375 C 0.617188 -16.273438 0.492188 -18.09375 0.734375 -19.9375 C 1.554688 -25.738281 3.582031 -30.910156 6.8125 -35.453125 C 7.789062 -36.765625 8.832031 -37.910156 9.9375 -38.890625 C 10.832031 -39.710938 11.8125 -40.304688 12.875 -40.671875 C 14.4375 -41.242188 15.8125 -41.222656 17 -40.609375 C 17.6875 -40.242188 18.238281 -39.753906 18.65625 -39.140625 C 18.851562 -38.765625 18.910156 -38.457031 18.828125 -38.21875 C 18.742188 -38.050781 18.6875 -37.945312 18.65625 -37.90625 C 18.53125 -37.863281 18.40625 -37.90625 18.28125 -38.03125 C 17.957031 -38.476562 17.753906 -38.722656 17.671875 -38.765625 C 16.609375 -39.503906 15.523438 -39.707031 14.421875 -39.375 C 13.472656 -39.09375 12.53125 -38.625 11.59375 -37.96875 C 10.53125 -37.070312 9.507812 -35.96875 8.53125 -34.65625 C 6.28125 -31.632812 4.5625 -27.992188 3.375 -23.734375 C 2.675781 -21.410156 2.304688 -19.328125 2.265625 -17.484375 C 2.179688 -16.171875 2.285156 -15.023438 2.578125 -14.046875 C 2.984375 -12.492188 3.941406 -11.921875 5.453125 -12.328125 C 6.191406 -12.578125 6.929688 -12.925781 7.671875 -13.375 C 8.242188 -13.738281 9.101562 -14.410156 10.25 -15.390625 C 10.820312 -15.890625 13.191406 -18.285156 17.359375 -22.578125 C 17.566406 -22.816406 17.800781 -23.054688 18.0625 -23.296875 C 18.332031 -23.546875 18.628906 -23.832031 18.953125 -24.15625 C 19.285156 -24.488281 19.53125 -24.738281 19.6875 -24.90625 C 20.21875 -25.351562 20.691406 -25.679688 21.109375 -25.890625 C 22.285156 -26.503906 23.140625 -26.195312 23.671875 -24.96875 C 24.003906 -24.03125 24.191406 -23.109375 24.234375 -22.203125 C 24.390625 -19.222656 24.347656 -16.113281 24.109375 -12.875 C 24.109375 -12.46875 24.128906 -12.222656 24.171875 -12.140625 L 24.53125 -12.390625 C 26.09375 -13.898438 28.28125 -15.757812 31.09375 -17.96875 L 33.0625 -19.625 C 33.144531 -19.707031 33.269531 -19.707031 33.4375 -19.625 C 33.476562 -19.625 33.5 -19.5625 33.5 -19.4375 C 33.5 -19.320312 33.476562 -19.242188 33.4375 -19.203125 L 33.1875 -18.953125 C 33.101562 -18.867188 32.957031 -18.734375 32.75 -18.546875 C 32.550781 -18.367188 32.390625 -18.238281 32.265625 -18.15625 C 29.691406 -16.03125 28.320312 -14.90625 28.15625 -14.78125 L 24.65625 -11.59375 C 24.164062 -11.226562 23.859375 -10.613281 23.734375 -9.75 C 23.535156 -7.539062 23.023438 -5.148438 22.203125 -2.578125 C 21.304688 0.609375 20.082031 3.675781 18.53125 6.625 C 17.507812 8.625 16.175781 10.257812 14.53125 11.53125 C 14.082031 11.851562 13.550781 12.160156 12.9375 12.453125 Z M 12.140625 11.71875 C 12.304688 11.71875 12.59375 11.632812 13 11.46875 C 13.488281 11.269531 14.039062 10.863281 14.65625 10.25 C 15.925781 9.019531 16.972656 7.566406 17.796875 5.890625 C 20.035156 1.515625 21.566406 -2.898438 22.390625 -7.359375 C 22.597656 -8.378906 22.679688 -9.035156 22.640625 -9.328125 C 22.515625 -9.242188 22.207031 -8.976562 21.71875 -8.53125 C 19.21875 -5.75 16.679688 -2.640625 14.109375 0.796875 C 13.210938 2.066406 12.515625 3.171875 12.015625 4.109375 C 11.285156 5.660156 10.796875 6.988281 10.546875 8.09375 C 10.347656 9.195312 10.429688 10.160156 10.796875 10.984375 C 11.078125 11.597656 11.523438 11.84375 12.140625 11.71875 Z M 12.140625 11.71875 "/></g></g></g><g fill="#060606" fill-opacity="1"><g transform="translate(236.446359, 126.619273)"><g><path d="M 3.6875 -12.203125 C 2.820312 -12.285156 2.269531 -12.71875 2.03125 -13.5 C 1.945312 -13.78125 1.90625 -14.269531 1.90625 -14.96875 C 1.945312 -15.332031 2.003906 -15.75 2.078125 -16.21875 C 2.160156 -16.695312 2.210938 -17.015625 2.234375 -17.171875 C 2.253906 -17.335938 2.253906 -17.519531 2.234375 -17.71875 C 2.210938 -17.925781 2.160156 -18.082031 2.078125 -18.1875 C 2.003906 -18.289062 1.882812 -18.40625 1.71875 -18.53125 C 1.3125 -18.769531 0.941406 -19.078125 0.609375 -19.453125 C -0.160156 -20.429688 -0.0546875 -21.285156 0.921875 -22.015625 C 1.242188 -22.222656 1.554688 -22.253906 1.859375 -22.109375 C 2.171875 -21.972656 2.347656 -21.71875 2.390625 -21.34375 C 2.429688 -21.1875 2.410156 -20.898438 2.328125 -20.484375 C 2.328125 -20.441406 2.226562 -20.175781 2.03125 -19.6875 C 1.90625 -19.53125 1.921875 -19.367188 2.078125 -19.203125 C 2.203125 -19.078125 2.304688 -18.992188 2.390625 -18.953125 C 3.085938 -18.421875 3.414062 -17.644531 3.375 -16.625 C 3.375 -16.414062 3.363281 -16.109375 3.34375 -15.703125 C 3.320312 -15.296875 3.3125 -14.988281 3.3125 -14.78125 C 3.3125 -14.539062 3.351562 -14.210938 3.4375 -13.796875 C 3.5625 -13.347656 3.867188 -13.125 4.359375 -13.125 C 4.679688 -13.164062 5.066406 -13.289062 5.515625 -13.5 C 6.296875 -13.820312 7.078125 -14.3125 7.859375 -14.96875 C 8.222656 -15.25 9.015625 -15.890625 10.234375 -16.890625 C 11.460938 -17.898438 12.265625 -18.546875 12.640625 -18.828125 C 12.960938 -19.078125 13.226562 -19.265625 13.4375 -19.390625 C 13.476562 -19.429688 13.519531 -19.441406 13.5625 -19.421875 C 13.601562 -19.398438 13.625 -19.367188 13.625 -19.328125 C 13.695312 -19.242188 13.710938 -19.179688 13.671875 -19.140625 C 13.554688 -18.929688 13.476562 -18.804688 13.4375 -18.765625 C 12.90625 -18.316406 11.910156 -17.507812 10.453125 -16.34375 C 9.003906 -15.175781 8.140625 -14.492188 7.859375 -14.296875 C 7.160156 -13.679688 6.257812 -13.109375 5.15625 -12.578125 C 4.75 -12.328125 4.257812 -12.203125 3.6875 -12.203125 Z M 1.234375 -20 L 1.34375 -20.0625 L 1.46875 -20.125 C 1.675781 -20.445312 1.78125 -20.773438 1.78125 -21.109375 C 1.78125 -21.179688 1.71875 -21.28125 1.59375 -21.40625 C 1.507812 -21.488281 1.390625 -21.488281 1.234375 -21.40625 C 0.773438 -21.082031 0.710938 -20.675781 1.046875 -20.1875 Z M 1.234375 -20 "/></g></g></g><g fill="#060606" fill-opacity="1"><g transform="translate(248.897451, 126.619273)"><g><path d="M 7.296875 -16.875 C 6.398438 -16.625 5.890625 -16.96875 5.765625 -17.90625 C 5.722656 -18.40625 5.765625 -18.957031 5.890625 -19.5625 C 5.972656 -20.019531 5.992188 -20.304688 5.953125 -20.421875 C 5.867188 -20.421875 5.785156 -20.398438 5.703125 -20.359375 C 5.617188 -20.328125 5.554688 -20.289062 5.515625 -20.25 C 5.472656 -20.207031 5.421875 -20.15625 5.359375 -20.09375 C 5.304688 -20.03125 5.257812 -19.976562 5.21875 -19.9375 C 4.269531 -19.113281 3.410156 -18.519531 2.640625 -18.15625 C 2.347656 -17.988281 2.0625 -17.847656 1.78125 -17.734375 C 1.375 -17.609375 1.054688 -17.644531 0.828125 -17.84375 C 0.597656 -18.050781 0.523438 -18.359375 0.609375 -18.765625 C 0.609375 -18.847656 0.648438 -19.015625 0.734375 -19.265625 C 0.984375 -19.835938 1.351562 -20.304688 1.84375 -20.671875 C 2.695312 -21.285156 3.554688 -21.285156 4.421875 -20.671875 L 4.484375 -20.609375 L 4.546875 -20.609375 C 4.828125 -20.410156 5.070312 -20.410156 5.28125 -20.609375 L 6.4375 -21.78125 C 6.644531 -21.9375 6.804688 -21.953125 6.921875 -21.828125 C 7.046875 -21.710938 7.070312 -21.613281 7 -21.53125 C 6.957031 -21.207031 6.851562 -20.71875 6.6875 -20.0625 C 6.476562 -19.28125 6.394531 -18.5625 6.4375 -17.90625 C 6.476562 -17.582031 6.679688 -17.441406 7.046875 -17.484375 C 7.660156 -17.566406 9.300781 -18.238281 11.96875 -19.5 C 12.125 -19.5 12.222656 -19.460938 12.265625 -19.390625 C 12.347656 -19.179688 12.25 -18.992188 11.96875 -18.828125 C 9.832031 -17.765625 8.273438 -17.113281 7.296875 -16.875 Z M 2.078125 -18.53125 C 2.535156 -18.6875 3.007812 -18.910156 3.5 -19.203125 C 3.78125 -19.398438 3.941406 -19.5625 3.984375 -19.6875 C 4.023438 -19.769531 3.972656 -19.84375 3.828125 -19.90625 C 3.691406 -19.96875 3.519531 -20 3.3125 -20 C 2.988281 -19.914062 2.742188 -19.832031 2.578125 -19.75 C 2.085938 -19.382812 1.757812 -19 1.59375 -18.59375 C 1.800781 -18.425781 1.960938 -18.40625 2.078125 -18.53125 Z M 2.078125 -18.53125 "/></g></g></g><g fill="#060606" fill-opacity="1"><g transform="translate(259.937828, 126.619273)"><g><path d="M 2.703125 -13 C 2.085938 -12.632812 1.597656 -12.78125 1.234375 -13.4375 C 1.148438 -13.59375 1.066406 -13.835938 0.984375 -14.171875 C 0.578125 -15.847656 0.492188 -17.460938 0.734375 -19.015625 C 0.816406 -19.460938 0.984375 -19.707031 1.234375 -19.75 C 1.597656 -19.75 1.78125 -19.484375 1.78125 -18.953125 C 1.820312 -18.585938 1.851562 -18.175781 1.875 -17.71875 C 1.894531 -17.269531 1.914062 -16.78125 1.9375 -16.25 C 1.957031 -15.71875 1.96875 -15.3125 1.96875 -15.03125 C 1.96875 -14.90625 1.984375 -14.71875 2.015625 -14.46875 C 2.054688 -14.226562 2.078125 -14.046875 2.078125 -13.921875 C 2.160156 -13.554688 2.347656 -13.472656 2.640625 -13.671875 C 2.921875 -13.753906 3.1875 -14.003906 3.4375 -14.421875 C 4.5 -15.890625 5.316406 -17.257812 5.890625 -18.53125 C 6.421875 -19.675781 6.75 -20.367188 6.875 -20.609375 C 7.195312 -21.140625 7.582031 -21.242188 8.03125 -20.921875 L 9.875 -19.9375 C 10.8125 -19.445312 11.796875 -19.285156 12.828125 -19.453125 C 12.984375 -19.484375 13.1875 -19.5 13.4375 -19.5 C 13.800781 -19.5 14.023438 -19.457031 14.109375 -19.375 C 14.191406 -19.300781 14.109375 -19.203125 13.859375 -19.078125 C 13.734375 -19.035156 13.613281 -18.992188 13.5 -18.953125 C 12.019531 -18.585938 10.609375 -18.769531 9.265625 -19.5 C 9.054688 -19.582031 8.757812 -19.738281 8.375 -19.96875 C 7.988281 -20.195312 7.691406 -20.367188 7.484375 -20.484375 C 7.273438 -20.285156 6.988281 -19.816406 6.625 -19.078125 C 6.132812 -17.890625 5.296875 -16.359375 4.109375 -14.484375 C 3.859375 -14.066406 3.632812 -13.757812 3.4375 -13.5625 C 3.269531 -13.3125 3.023438 -13.125 2.703125 -13 Z M 2.703125 -13 "/></g></g></g><g fill="#060606" fill-opacity="1"><g transform="translate(272.818269, 126.619273)"><g><path d="M 0.0625 10.1875 C -0.46875 10.269531 -0.90625 10.164062 -1.25 9.875 C -1.601562 9.59375 -1.800781 9.1875 -1.84375 8.65625 C -1.84375 8.082031 -1.78125 7.546875 -1.65625 7.046875 C -1.375 5.703125 -0.90625 4.351562 -0.25 3 C 0.894531 0.632812 2.59375 -2.0625 4.84375 -5.09375 C 5.863281 -6.476562 7.476562 -8.484375 9.6875 -11.109375 C 10.101562 -11.597656 10.367188 -12.128906 10.484375 -12.703125 C 10.523438 -12.859375 10.832031 -14.960938 11.40625 -19.015625 C 11.445312 -19.304688 11.519531 -19.71875 11.625 -20.25 C 11.726562 -20.78125 11.800781 -21.164062 11.84375 -21.40625 C 11.84375 -21.851562 11.820312 -22.097656 11.78125 -22.140625 C 11.695312 -22.140625 11.429688 -21.976562 10.984375 -21.65625 C 9.960938 -20.71875 8.816406 -19.488281 7.546875 -17.96875 C 6.273438 -16.582031 5.171875 -15.5 4.234375 -14.71875 C 3.742188 -14.3125 3.296875 -14.023438 2.890625 -13.859375 C 1.535156 -13.328125 0.695312 -13.757812 0.375 -15.15625 C 0.0390625 -16.300781 0.160156 -17.691406 0.734375 -19.328125 C 0.773438 -19.410156 0.898438 -19.550781 1.109375 -19.75 C 1.222656 -19.832031 1.363281 -19.84375 1.53125 -19.78125 C 1.695312 -19.71875 1.800781 -19.625 1.84375 -19.5 L 1.90625 -18.890625 C 1.863281 -18.523438 1.84375 -17.851562 1.84375 -16.875 L 1.84375 -15.890625 C 1.882812 -15.109375 2.289062 -14.863281 3.0625 -15.15625 C 3.476562 -15.3125 3.972656 -15.617188 4.546875 -16.078125 C 5.035156 -16.441406 5.726562 -17.070312 6.625 -17.96875 C 7.28125 -18.664062 8.300781 -19.710938 9.6875 -21.109375 C 9.976562 -21.429688 10.453125 -21.878906 11.109375 -22.453125 C 11.148438 -22.492188 11.351562 -22.632812 11.71875 -22.875 C 12.082031 -23.039062 12.304688 -22.921875 12.390625 -22.515625 L 12.390625 -22.140625 C 12.390625 -21.523438 12.347656 -21.078125 12.265625 -20.796875 C 12.097656 -19.523438 11.75 -17.171875 11.21875 -13.734375 C 11.1875 -13.660156 11.171875 -13.539062 11.171875 -13.375 C 11.171875 -13.207031 11.171875 -13.101562 11.171875 -13.0625 C 11.367188 -13.019531 11.59375 -13.125 11.84375 -13.375 C 13.476562 -15.007812 15.378906 -16.804688 17.546875 -18.765625 L 18.28125 -19.328125 C 18.40625 -19.367188 18.488281 -19.347656 18.53125 -19.265625 L 18.53125 -19.078125 L 18.15625 -18.703125 C 17.625 -18.171875 17.21875 -17.785156 16.9375 -17.546875 C 14.96875 -15.828125 13.207031 -14.171875 11.65625 -12.578125 C 11.125 -12.046875 10.796875 -11.410156 10.671875 -10.671875 C 9.859375 -6.253906 8.957031 -2.613281 7.96875 0.25 C 7.351562 2.007812 6.800781 3.378906 6.3125 4.359375 C 5.695312 5.617188 4.820312 6.84375 3.6875 8.03125 C 2.820312 8.894531 1.960938 9.507812 1.109375 9.875 C 0.734375 10.039062 0.382812 10.144531 0.0625 10.1875 Z M 0.1875 9.5625 L 1.109375 9.203125 C 1.878906 8.835938 2.53125 8.347656 3.0625 7.734375 C 4.207031 6.546875 5.085938 5.316406 5.703125 4.046875 C 6.484375 2.453125 7.078125 1.019531 7.484375 -0.25 C 8.296875 -2.539062 9.09375 -5.6875 9.875 -9.6875 C 9.957031 -10.0625 9.957031 -10.328125 9.875 -10.484375 C 9.75 -10.441406 9.644531 -10.390625 9.5625 -10.328125 C 9.488281 -10.273438 9.410156 -10.1875 9.328125 -10.0625 C 9.242188 -9.9375 9.179688 -9.851562 9.140625 -9.8125 L 6.140625 -6.140625 C 3.890625 -3.234375 2.023438 -0.390625 0.546875 2.390625 C -0.265625 3.941406 -0.835938 5.457031 -1.171875 6.9375 C -1.285156 7.425781 -1.34375 7.914062 -1.34375 8.40625 C -1.300781 9.382812 -0.789062 9.769531 0.1875 9.5625 Z M 0.1875 9.5625 "/></g></g></g><g clip-path="url(#daad11474f)"><path fill="#fbfaf9" d="M 96.816406 139.878906 L 278.183594 139.878906 L 278.183594 157.128906 L 96.816406 157.128906 Z M 96.816406 139.878906 " fill-opacity="1" fill-rule="nonzero"/></g><g fill="#060606" fill-opacity="1"><g transform="translate(147.342354, 151.418844)"><g><path d="M 4.984375 0 L 2.9375 -2.75 L 1.875 -1.59375 L 1.875 0 L 0.828125 0 L 0.828125 -6.25 L 1.875 -6.25 L 1.875 -3.015625 L 4.859375 -6.25 L 6.09375 -6.25 L 3.671875 -3.578125 L 6.25 0 Z M 4.984375 0 "/></g></g></g><g fill="#060606" fill-opacity="1"><g transform="translate(158.646839, 151.418844)"><g><path d="M 1.875 0 L 0.828125 0 L 0.828125 -6.25 L 1.875 -6.25 Z M 1.875 0 "/></g></g></g><g fill="#060606" fill-opacity="1"><g transform="translate(166.243966, 151.418844)"><g><path d="M 5.078125 -5.296875 L 3.109375 -5.296875 L 3.109375 0 L 2.046875 0 L 2.046875 -5.296875 L 0.078125 -5.296875 L 0.078125 -6.25 L 5.078125 -6.25 Z M 5.078125 -5.296875 "/></g></g></g><g fill="#060606" fill-opacity="1"><g transform="translate(176.309694, 151.418844)"><g><path d="M 3.59375 -6.265625 C 4.03125 -6.265625 4.457031 -6.179688 4.875 -6.015625 C 5.289062 -5.847656 5.648438 -5.613281 5.953125 -5.3125 L 5.34375 -4.546875 C 5.113281 -4.785156 4.84375 -4.972656 4.53125 -5.109375 C 4.226562 -5.253906 3.921875 -5.328125 3.609375 -5.328125 C 2.984375 -5.328125 2.453125 -5.113281 2.015625 -4.6875 C 1.585938 -4.269531 1.375 -3.753906 1.375 -3.140625 C 1.375 -2.523438 1.585938 -2.003906 2.015625 -1.578125 C 2.453125 -1.148438 2.984375 -0.9375 3.609375 -0.9375 C 4.253906 -0.9375 4.832031 -1.179688 5.34375 -1.671875 L 5.96875 -0.984375 C 5.644531 -0.671875 5.269531 -0.421875 4.84375 -0.234375 C 4.414062 -0.046875 3.984375 0.046875 3.546875 0.046875 C 2.628906 0.046875 1.859375 -0.253906 1.234375 -0.859375 C 0.609375 -1.472656 0.296875 -2.226562 0.296875 -3.125 C 0.296875 -4.007812 0.613281 -4.753906 1.25 -5.359375 C 1.882812 -5.960938 2.664062 -6.265625 3.59375 -6.265625 Z M 3.59375 -6.265625 "/></g></g></g><g fill="#060606" fill-opacity="1"><g transform="translate(187.427022, 151.418844)"><g><path d="M 6.234375 0 L 5.1875 0 L 5.1875 -2.59375 L 1.875 -2.59375 L 1.875 0 L 0.828125 0 L 0.828125 -6.25 L 1.875 -6.25 L 1.875 -3.53125 L 5.1875 -3.53125 L 5.1875 -6.25 L 6.234375 -6.25 Z M 6.234375 0 "/></g></g></g><g fill="#060606" fill-opacity="1"><g transform="translate(199.382074, 151.418844)"><g><path d="M 5.28125 -5.296875 L 1.875 -5.296875 L 1.875 -3.609375 L 4.921875 -3.609375 L 4.921875 -2.671875 L 1.875 -2.671875 L 1.875 -0.953125 L 5.390625 -0.953125 L 5.390625 0 L 0.828125 0 L 0.828125 -6.25 L 5.28125 -6.25 Z M 5.28125 -5.296875 "/></g></g></g><g fill="#060606" fill-opacity="1"><g transform="translate(210.134016, 151.418844)"><g><path d="M 6.234375 0 L 5.203125 0 L 1.875 -4.484375 L 1.875 0 L 0.828125 0 L 0.828125 -6.25 L 1.859375 -6.25 L 5.203125 -1.75 L 5.203125 -6.25 L 6.234375 -6.25 Z M 6.234375 0 "/></g></g></g><g fill="#060606" fill-opacity="1"><g transform="translate(222.097978, 151.418844)"><g><path d="M 2.875 -6.296875 C 3.6875 -6.296875 4.414062 -6.078125 5.0625 -5.640625 L 4.625 -4.71875 C 3.988281 -5.101562 3.378906 -5.296875 2.796875 -5.296875 C 2.472656 -5.296875 2.222656 -5.238281 2.046875 -5.125 C 1.867188 -5.007812 1.78125 -4.847656 1.78125 -4.640625 C 1.78125 -4.441406 1.863281 -4.269531 2.03125 -4.125 C 2.195312 -3.976562 2.40625 -3.867188 2.65625 -3.796875 C 2.90625 -3.722656 3.175781 -3.632812 3.46875 -3.53125 C 3.757812 -3.425781 4.023438 -3.316406 4.265625 -3.203125 C 4.515625 -3.085938 4.722656 -2.90625 4.890625 -2.65625 C 5.054688 -2.414062 5.140625 -2.117188 5.140625 -1.765625 C 5.140625 -1.222656 4.921875 -0.785156 4.484375 -0.453125 C 4.046875 -0.128906 3.476562 0.03125 2.78125 0.03125 C 2.300781 0.03125 1.835938 -0.0546875 1.390625 -0.234375 C 0.953125 -0.410156 0.566406 -0.648438 0.234375 -0.953125 L 0.6875 -1.859375 C 1 -1.566406 1.34375 -1.34375 1.71875 -1.1875 C 2.101562 -1.03125 2.460938 -0.953125 2.796875 -0.953125 C 3.171875 -0.953125 3.457031 -1.019531 3.65625 -1.15625 C 3.863281 -1.289062 3.96875 -1.476562 3.96875 -1.71875 C 3.96875 -1.925781 3.882812 -2.101562 3.71875 -2.25 C 3.550781 -2.394531 3.34375 -2.5 3.09375 -2.5625 C 2.84375 -2.632812 2.570312 -2.71875 2.28125 -2.8125 C 1.988281 -2.914062 1.71875 -3.019531 1.46875 -3.125 C 1.21875 -3.238281 1.007812 -3.414062 0.84375 -3.65625 C 0.675781 -3.90625 0.59375 -4.203125 0.59375 -4.546875 C 0.59375 -5.078125 0.800781 -5.5 1.21875 -5.8125 C 1.632812 -6.132812 2.1875 -6.296875 2.875 -6.296875 Z M 2.875 -6.296875 "/></g></g></g></svg>