<svg xmlns="http://www.w3.org/2000/svg" xmlns:xlink="http://www.w3.org/1999/xlink" width="500" zoomAndPan="magnify" viewBox="0 0 375 225" height="300" preserveAspectRatio="xMidYMid meet" version="1.0"><defs><g/><clipPath id="40295b841f"><path d="M 64.269531 66.957031 L 311.007812 66.957031 L 311.007812 149.457031 L 64.269531 149.457031 Z M 64.269531 66.957031 " clip-rule="nonzero"/></clipPath><clipPath id="1a944cde70"><path d="M 94.964844 140.4375 L 280.035156 140.4375 L 280.035156 158.042969 L 94.964844 158.042969 Z M 94.964844 140.4375 " clip-rule="nonzero"/></clipPath></defs><rect x="-37.5" width="450" fill="#ffffff" y="-22.5" height="270" fill-opacity="1"/><rect x="-37.5" width="450" fill="#060606" y="-22.5" height="270" fill-opacity="1"/><g clip-path="url(#40295b841f)"><path stroke-linecap="butt" transform="matrix(0.750856, 0, 0, 0.75203, 64.269921, 66.958104)" fill="none" stroke-linejoin="miter" d="M -0.000519503 -0.00142649 L 328.608907 -0.00142649 L 328.608907 109.701706 L -0.000519503 109.701706 Z M -0.000519503 -0.00142649 " stroke="#fbfaf9" stroke-width="2" stroke-opacity="1" stroke-miterlimit="4"/></g><g fill="#fbfaf9" fill-opacity="1"><g transform="translate(109.32189, 119.611698)"><g><path d="M 11.15625 -25.84375 C 10.25 -25.789062 9.585938 -25.6875 9.171875 -25.53125 C 8.765625 -25.382812 8.484375 -25.097656 8.328125 -24.671875 C 8.179688 -24.253906 8.109375 -23.566406 8.109375 -22.609375 L 8.109375 -3.984375 C 8.109375 -3.023438 8.179688 -2.332031 8.328125 -1.90625 C 8.484375 -1.488281 8.765625 -1.203125 9.171875 -1.046875 C 9.585938 -0.898438 10.25 -0.800781 11.15625 -0.75 L 11.15625 0 C 10 -0.0703125 8.410156 -0.109375 6.390625 -0.109375 C 4.234375 -0.109375 2.628906 -0.0703125 1.578125 0 L 1.578125 -0.75 C 2.484375 -0.800781 3.140625 -0.898438 3.546875 -1.046875 C 3.960938 -1.203125 4.242188 -1.488281 4.390625 -1.90625 C 4.546875 -2.332031 4.625 -3.023438 4.625 -3.984375 L 4.625 -22.609375 C 4.625 -23.566406 4.546875 -24.253906 4.390625 -24.671875 C 4.242188 -25.097656 3.960938 -25.382812 3.546875 -25.53125 C 3.140625 -25.6875 2.484375 -25.789062 1.578125 -25.84375 L 1.578125 -26.59375 C 2.628906 -26.519531 4.234375 -26.484375 6.390625 -26.484375 C 8.390625 -26.484375 9.976562 -26.519531 11.15625 -26.59375 Z M 11.15625 -25.84375 "/></g></g></g><g fill="#fbfaf9" fill-opacity="1"><g transform="translate(120.924898, 119.611698)"><g><path d="M 7.140625 -19.3125 L 12.703125 -19.3125 L 12.703125 -18.5625 L 7.140625 -18.5625 L 7.140625 -4.015625 C 7.140625 -2.890625 7.34375 -2.078125 7.75 -1.578125 C 8.164062 -1.078125 8.765625 -0.828125 9.546875 -0.828125 C 10.316406 -0.828125 10.976562 -1.140625 11.53125 -1.765625 C 12.082031 -2.390625 12.546875 -3.414062 12.921875 -4.84375 L 13.671875 -4.65625 C 13.046875 -1.195312 11.421875 0.53125 8.796875 0.53125 C 7.941406 0.53125 7.238281 0.425781 6.6875 0.21875 C 6.132812 0.0195312 5.644531 -0.289062 5.21875 -0.71875 C 4.664062 -1.269531 4.28125 -1.941406 4.0625 -2.734375 C 3.851562 -3.535156 3.75 -4.613281 3.75 -5.96875 L 3.75 -18.5625 L 0.15625 -18.5625 L 0.15625 -19.3125 L 3.75 -19.3125 L 3.75 -25.046875 C 5.15625 -25.097656 6.285156 -25.273438 7.140625 -25.578125 Z M 7.140625 -19.3125 "/></g></g></g><g fill="#fbfaf9" fill-opacity="1"><g transform="translate(133.091165, 119.611698)"><g><path d="M 4.4375 -27.125 C 5.40625 -27.125 6.144531 -26.722656 6.65625 -25.921875 C 7.070312 -25.242188 7.28125 -24.414062 7.28125 -23.4375 C 7.28125 -22.1875 6.960938 -21.0625 6.328125 -20.0625 C 5.691406 -19.0625 4.722656 -18.257812 3.421875 -17.65625 L 3.078125 -18.328125 C 3.859375 -18.648438 4.53125 -19.160156 5.09375 -19.859375 C 5.65625 -20.566406 5.9375 -21.285156 5.9375 -22.015625 C 5.9375 -22.316406 5.898438 -22.578125 5.828125 -22.796875 C 5.421875 -22.472656 4.957031 -22.3125 4.4375 -22.3125 C 3.757812 -22.3125 3.1875 -22.53125 2.71875 -22.96875 C 2.257812 -23.40625 2.03125 -23.988281 2.03125 -24.71875 C 2.03125 -25.394531 2.257812 -25.960938 2.71875 -26.421875 C 3.1875 -26.890625 3.757812 -27.125 4.4375 -27.125 Z M 4.4375 -27.125 "/></g></g></g><g fill="#fbfaf9" fill-opacity="1"><g transform="translate(141.164395, 119.611698)"><g><path d="M 7.8125 -19.875 C 8.71875 -19.875 9.519531 -19.734375 10.21875 -19.453125 C 10.914062 -19.179688 11.476562 -18.859375 11.90625 -18.484375 C 12.1875 -18.285156 12.410156 -18.1875 12.578125 -18.1875 C 13.035156 -18.1875 13.3125 -18.734375 13.40625 -19.828125 L 14.28125 -19.828125 C 14.175781 -18.609375 14.125 -16.484375 14.125 -13.453125 L 13.265625 -13.453125 C 12.984375 -15.097656 12.445312 -16.457031 11.65625 -17.53125 C 10.875 -18.613281 9.707031 -19.15625 8.15625 -19.15625 C 7.25 -19.15625 6.507812 -18.894531 5.9375 -18.375 C 5.363281 -17.863281 5.078125 -17.160156 5.078125 -16.265625 C 5.078125 -15.390625 5.375 -14.65625 5.96875 -14.0625 C 6.570312 -13.476562 7.535156 -12.769531 8.859375 -11.9375 C 9.085938 -11.8125 9.425781 -11.601562 9.875 -11.3125 C 11.03125 -10.550781 11.957031 -9.882812 12.65625 -9.3125 C 13.351562 -8.738281 13.921875 -8.078125 14.359375 -7.328125 C 14.804688 -6.578125 15.03125 -5.710938 15.03125 -4.734375 C 15.03125 -3.078125 14.410156 -1.785156 13.171875 -0.859375 C 11.929688 0.0664062 10.410156 0.53125 8.609375 0.53125 C 7.472656 0.53125 6.484375 0.351562 5.640625 0 C 5.085938 -0.269531 4.570312 -0.609375 4.09375 -1.015625 C 3.988281 -1.117188 3.875 -1.171875 3.75 -1.171875 C 3.582031 -1.171875 3.425781 -1.039062 3.28125 -0.78125 C 3.144531 -0.53125 3.039062 -0.179688 2.96875 0.265625 L 2.109375 0.265625 C 2.203125 -1.160156 2.25 -3.664062 2.25 -7.25 L 3.125 -7.25 C 3.394531 -4.894531 3.890625 -3.132812 4.609375 -1.96875 C 5.335938 -0.800781 6.582031 -0.21875 8.34375 -0.21875 C 9.21875 -0.21875 9.992188 -0.503906 10.671875 -1.078125 C 11.347656 -1.660156 11.6875 -2.566406 11.6875 -3.796875 C 11.6875 -4.773438 11.351562 -5.597656 10.6875 -6.265625 C 10.019531 -6.941406 8.9375 -7.757812 7.4375 -8.71875 C 6.207031 -9.488281 5.257812 -10.125 4.59375 -10.625 C 3.9375 -11.125 3.378906 -11.738281 2.921875 -12.46875 C 2.472656 -13.195312 2.25 -14.050781 2.25 -15.03125 C 2.25 -16.601562 2.773438 -17.800781 3.828125 -18.625 C 4.878906 -19.457031 6.207031 -19.875 7.8125 -19.875 Z M 7.8125 -19.875 "/></g></g></g><g fill="#fbfaf9" fill-opacity="1"><g transform="translate(202.372828, 130.805297)"><g><path d="M 13.203125 12.703125 C 11.785156 13.242188 10.785156 12.828125 10.203125 11.453125 C 9.785156 10.367188 9.742188 9.222656 10.078125 8.015625 C 10.453125 6.265625 11.242188 4.382812 12.453125 2.375 C 13.367188 1.039062 14.078125 0.0625 14.578125 -0.5625 C 18.171875 -5.15625 20.96875 -8.472656 22.96875 -10.515625 C 23.21875 -10.847656 23.382812 -11.265625 23.46875 -11.765625 C 23.84375 -14.222656 23.988281 -17.207031 23.90625 -20.71875 C 23.90625 -21.925781 23.820312 -23.007812 23.65625 -23.96875 C 23.570312 -24.507812 23.445312 -24.988281 23.28125 -25.40625 C 23.070312 -25.78125 22.71875 -25.945312 22.21875 -25.90625 C 21.96875 -25.863281 21.632812 -25.71875 21.21875 -25.46875 C 20.46875 -24.925781 19.820312 -24.382812 19.28125 -23.84375 C 18.863281 -23.425781 18.4375 -22.988281 18 -22.53125 C 17.5625 -22.070312 17.054688 -21.550781 16.484375 -20.96875 C 15.921875 -20.382812 15.492188 -19.925781 15.203125 -19.59375 C 13.328125 -17.632812 11.660156 -16.003906 10.203125 -14.703125 C 8.953125 -13.617188 7.953125 -12.867188 7.203125 -12.453125 C 6.578125 -12.117188 5.820312 -11.847656 4.9375 -11.640625 C 3.6875 -11.472656 2.6875 -11.910156 1.9375 -12.953125 C 1.601562 -13.453125 1.332031 -14.054688 1.125 -14.765625 C 0.625 -16.609375 0.5 -18.46875 0.75 -20.34375 C 1.582031 -26.269531 3.648438 -31.546875 6.953125 -36.171875 C 7.953125 -37.515625 9.015625 -38.6875 10.140625 -39.6875 C 11.054688 -40.519531 12.054688 -41.125 13.140625 -41.5 C 14.722656 -42.082031 16.125 -42.0625 17.34375 -41.4375 C 18.050781 -41.0625 18.613281 -40.5625 19.03125 -39.9375 C 19.238281 -39.5625 19.300781 -39.25 19.21875 -39 C 19.132812 -38.832031 19.070312 -38.726562 19.03125 -38.6875 C 18.90625 -38.644531 18.78125 -38.6875 18.65625 -38.8125 C 18.320312 -39.269531 18.113281 -39.519531 18.03125 -39.5625 C 16.945312 -40.3125 15.835938 -40.519531 14.703125 -40.1875 C 13.742188 -39.894531 12.785156 -39.414062 11.828125 -38.75 C 10.742188 -37.832031 9.703125 -36.703125 8.703125 -35.359375 C 6.410156 -32.273438 4.65625 -28.5625 3.4375 -24.21875 C 2.726562 -21.84375 2.351562 -19.71875 2.3125 -17.84375 C 2.226562 -16.507812 2.332031 -15.335938 2.625 -14.328125 C 3.039062 -12.742188 4.023438 -12.160156 5.578125 -12.578125 C 6.328125 -12.828125 7.078125 -13.179688 7.828125 -13.640625 C 8.410156 -14.015625 9.285156 -14.707031 10.453125 -15.71875 C 11.035156 -16.21875 13.457031 -18.65625 17.71875 -23.03125 C 17.925781 -23.28125 18.164062 -23.53125 18.4375 -23.78125 C 18.707031 -24.03125 19.007812 -24.320312 19.34375 -24.65625 C 19.675781 -24.988281 19.925781 -25.238281 20.09375 -25.40625 C 20.632812 -25.875 21.113281 -26.210938 21.53125 -26.421875 C 22.738281 -27.046875 23.613281 -26.726562 24.15625 -25.46875 C 24.488281 -24.507812 24.675781 -23.570312 24.71875 -22.65625 C 24.882812 -19.613281 24.84375 -16.441406 24.59375 -13.140625 C 24.59375 -12.722656 24.613281 -12.472656 24.65625 -12.390625 L 25.03125 -12.640625 C 26.625 -14.179688 28.859375 -16.082031 31.734375 -18.34375 L 33.734375 -20.03125 C 33.816406 -20.113281 33.941406 -20.113281 34.109375 -20.03125 C 34.148438 -20.03125 34.171875 -19.96875 34.171875 -19.84375 C 34.171875 -19.71875 34.148438 -19.632812 34.109375 -19.59375 L 33.859375 -19.34375 C 33.773438 -19.257812 33.628906 -19.125 33.421875 -18.9375 C 33.210938 -18.75 33.046875 -18.613281 32.921875 -18.53125 C 30.296875 -16.351562 28.898438 -15.203125 28.734375 -15.078125 L 25.15625 -11.828125 C 24.65625 -11.453125 24.34375 -10.828125 24.21875 -9.953125 C 24.007812 -7.703125 23.488281 -5.257812 22.65625 -2.625 C 21.738281 0.625 20.488281 3.753906 18.90625 6.765625 C 17.863281 8.804688 16.503906 10.472656 14.828125 11.765625 C 14.367188 12.097656 13.828125 12.410156 13.203125 12.703125 Z M 12.390625 11.953125 C 12.554688 11.953125 12.847656 11.867188 13.265625 11.703125 C 13.765625 11.492188 14.328125 11.078125 14.953125 10.453125 C 16.253906 9.203125 17.320312 7.722656 18.15625 6.015625 C 20.445312 1.546875 22.007812 -2.960938 22.84375 -7.515625 C 23.050781 -8.554688 23.132812 -9.222656 23.09375 -9.515625 C 22.96875 -9.429688 22.65625 -9.160156 22.15625 -8.703125 C 19.613281 -5.859375 17.023438 -2.6875 14.390625 0.8125 C 13.472656 2.101562 12.765625 3.226562 12.265625 4.1875 C 11.515625 5.78125 11.015625 7.140625 10.765625 8.265625 C 10.554688 9.390625 10.640625 10.367188 11.015625 11.203125 C 11.304688 11.828125 11.765625 12.078125 12.390625 11.953125 Z M 12.390625 11.953125 "/></g></g></g><g fill="#fbfaf9" fill-opacity="1"><g transform="translate(235.295443, 130.805297)"><g><path d="M 3.75 -12.453125 C 2.875 -12.535156 2.3125 -12.972656 2.0625 -13.765625 C 1.976562 -14.054688 1.9375 -14.554688 1.9375 -15.265625 C 1.976562 -15.648438 2.039062 -16.082031 2.125 -16.5625 C 2.207031 -17.039062 2.257812 -17.363281 2.28125 -17.53125 C 2.300781 -17.695312 2.300781 -17.882812 2.28125 -18.09375 C 2.257812 -18.300781 2.207031 -18.457031 2.125 -18.5625 C 2.039062 -18.664062 1.914062 -18.78125 1.75 -18.90625 C 1.332031 -19.15625 0.957031 -19.46875 0.625 -19.84375 C -0.164062 -20.84375 -0.0625 -21.71875 0.9375 -22.46875 C 1.269531 -22.675781 1.59375 -22.707031 1.90625 -22.5625 C 2.21875 -22.414062 2.394531 -22.15625 2.4375 -21.78125 C 2.476562 -21.613281 2.457031 -21.320312 2.375 -20.90625 C 2.375 -20.863281 2.269531 -20.59375 2.0625 -20.09375 C 1.9375 -19.925781 1.957031 -19.757812 2.125 -19.59375 C 2.25 -19.46875 2.351562 -19.382812 2.4375 -19.34375 C 3.144531 -18.800781 3.476562 -18.007812 3.4375 -16.96875 C 3.4375 -16.757812 3.425781 -16.441406 3.40625 -16.015625 C 3.382812 -15.597656 3.375 -15.285156 3.375 -15.078125 C 3.375 -14.828125 3.414062 -14.492188 3.5 -14.078125 C 3.625 -13.617188 3.9375 -13.390625 4.4375 -13.390625 C 4.769531 -13.429688 5.171875 -13.554688 5.640625 -13.765625 C 6.429688 -14.097656 7.222656 -14.597656 8.015625 -15.265625 C 8.390625 -15.566406 9.203125 -16.226562 10.453125 -17.25 C 11.703125 -18.269531 12.515625 -18.925781 12.890625 -19.21875 C 13.222656 -19.46875 13.492188 -19.65625 13.703125 -19.78125 C 13.742188 -19.820312 13.785156 -19.832031 13.828125 -19.8125 C 13.867188 -19.789062 13.890625 -19.757812 13.890625 -19.71875 C 13.972656 -19.632812 13.992188 -19.570312 13.953125 -19.53125 C 13.828125 -19.320312 13.742188 -19.195312 13.703125 -19.15625 C 13.160156 -18.695312 12.148438 -17.867188 10.671875 -16.671875 C 9.191406 -15.484375 8.304688 -14.785156 8.015625 -14.578125 C 7.304688 -13.953125 6.390625 -13.367188 5.265625 -12.828125 C 4.835938 -12.578125 4.332031 -12.453125 3.75 -12.453125 Z M 1.25 -20.40625 L 1.5 -20.53125 C 1.707031 -20.863281 1.8125 -21.195312 1.8125 -21.53125 C 1.8125 -21.613281 1.75 -21.71875 1.625 -21.84375 C 1.539062 -21.925781 1.414062 -21.925781 1.25 -21.84375 C 0.789062 -21.507812 0.726562 -21.09375 1.0625 -20.59375 Z M 1.25 -20.40625 "/></g></g></g><g fill="#fbfaf9" fill-opacity="1"><g transform="translate(248.00132, 130.805297)"><g><path d="M 7.453125 -17.21875 C 6.535156 -16.96875 6.015625 -17.320312 5.890625 -18.28125 C 5.847656 -18.78125 5.890625 -19.34375 6.015625 -19.96875 C 6.097656 -20.425781 6.117188 -20.71875 6.078125 -20.84375 C 5.992188 -20.84375 5.910156 -20.820312 5.828125 -20.78125 C 5.742188 -20.738281 5.679688 -20.695312 5.640625 -20.65625 C 5.597656 -20.613281 5.546875 -20.5625 5.484375 -20.5 C 5.421875 -20.4375 5.367188 -20.382812 5.328125 -20.34375 C 4.359375 -19.507812 3.476562 -18.90625 2.6875 -18.53125 C 2.394531 -18.363281 2.101562 -18.21875 1.8125 -18.09375 C 1.394531 -17.96875 1.070312 -18.007812 0.84375 -18.21875 C 0.613281 -18.425781 0.539062 -18.738281 0.625 -19.15625 C 0.625 -19.238281 0.664062 -19.40625 0.75 -19.65625 C 1 -20.238281 1.375 -20.71875 1.875 -21.09375 C 2.75 -21.71875 3.625 -21.71875 4.5 -21.09375 L 4.5625 -21.03125 L 4.625 -21.03125 C 4.914062 -20.820312 5.171875 -20.820312 5.390625 -21.03125 L 6.578125 -22.21875 C 6.785156 -22.382812 6.953125 -22.40625 7.078125 -22.28125 C 7.203125 -22.15625 7.222656 -22.050781 7.140625 -21.96875 C 7.097656 -21.632812 6.992188 -21.132812 6.828125 -20.46875 C 6.617188 -19.675781 6.535156 -18.945312 6.578125 -18.28125 C 6.617188 -17.945312 6.828125 -17.800781 7.203125 -17.84375 C 7.828125 -17.925781 9.492188 -18.613281 12.203125 -19.90625 C 12.367188 -19.90625 12.472656 -19.863281 12.515625 -19.78125 C 12.597656 -19.570312 12.492188 -19.382812 12.203125 -19.21875 C 10.035156 -18.132812 8.453125 -17.46875 7.453125 -17.21875 Z M 2.125 -18.90625 C 2.582031 -19.070312 3.0625 -19.300781 3.5625 -19.59375 C 3.851562 -19.800781 4.019531 -19.96875 4.0625 -20.09375 C 4.101562 -20.175781 4.050781 -20.25 3.90625 -20.3125 C 3.757812 -20.375 3.582031 -20.40625 3.375 -20.40625 C 3.039062 -20.320312 2.789062 -20.238281 2.625 -20.15625 C 2.125 -19.78125 1.789062 -19.382812 1.625 -18.96875 C 1.832031 -18.800781 2 -18.78125 2.125 -18.90625 Z M 2.125 -18.90625 "/></g></g></g><g fill="#fbfaf9" fill-opacity="1"><g transform="translate(259.267616, 130.805297)"><g><path d="M 2.75 -13.265625 C 2.125 -12.890625 1.625 -13.035156 1.25 -13.703125 C 1.164062 -13.867188 1.082031 -14.117188 1 -14.453125 C 0.582031 -16.171875 0.5 -17.820312 0.75 -19.40625 C 0.832031 -19.863281 1 -20.113281 1.25 -20.15625 C 1.625 -20.15625 1.8125 -19.882812 1.8125 -19.34375 C 1.851562 -18.96875 1.882812 -18.550781 1.90625 -18.09375 C 1.925781 -17.632812 1.945312 -17.132812 1.96875 -16.59375 C 1.988281 -16.050781 2 -15.628906 2 -15.328125 C 2 -15.203125 2.019531 -15.015625 2.0625 -14.765625 C 2.101562 -14.515625 2.125 -14.328125 2.125 -14.203125 C 2.207031 -13.828125 2.394531 -13.742188 2.6875 -13.953125 C 2.976562 -14.035156 3.25 -14.285156 3.5 -14.703125 C 4.582031 -16.210938 5.421875 -17.613281 6.015625 -18.90625 C 6.554688 -20.070312 6.890625 -20.78125 7.015625 -21.03125 C 7.347656 -21.570312 7.742188 -21.675781 8.203125 -21.34375 L 10.078125 -20.34375 C 11.035156 -19.84375 12.035156 -19.675781 13.078125 -19.84375 C 13.242188 -19.882812 13.453125 -19.90625 13.703125 -19.90625 C 14.078125 -19.90625 14.304688 -19.863281 14.390625 -19.78125 C 14.472656 -19.695312 14.390625 -19.59375 14.140625 -19.46875 C 14.015625 -19.425781 13.890625 -19.382812 13.765625 -19.34375 C 12.265625 -18.96875 10.828125 -19.15625 9.453125 -19.90625 C 9.242188 -19.988281 8.941406 -20.144531 8.546875 -20.375 C 8.148438 -20.601562 7.847656 -20.78125 7.640625 -20.90625 C 7.429688 -20.695312 7.140625 -20.21875 6.765625 -19.46875 C 6.265625 -18.257812 5.40625 -16.691406 4.1875 -14.765625 C 3.9375 -14.347656 3.707031 -14.035156 3.5 -13.828125 C 3.332031 -13.578125 3.082031 -13.390625 2.75 -13.265625 Z M 2.75 -13.265625 "/></g></g></g><g fill="#fbfaf9" fill-opacity="1"><g transform="translate(272.411624, 130.805297)"><g><path d="M 0.0625 10.390625 C -0.476562 10.472656 -0.925781 10.367188 -1.28125 10.078125 C -1.632812 9.785156 -1.832031 9.367188 -1.875 8.828125 C -1.875 8.242188 -1.8125 7.703125 -1.6875 7.203125 C -1.394531 5.816406 -0.914062 4.4375 -0.25 3.0625 C 0.914062 0.644531 2.644531 -2.101562 4.9375 -5.1875 C 5.988281 -6.613281 7.640625 -8.660156 9.890625 -11.328125 C 10.304688 -11.828125 10.578125 -12.367188 10.703125 -12.953125 C 10.742188 -13.117188 11.054688 -15.269531 11.640625 -19.40625 C 11.679688 -19.695312 11.753906 -20.113281 11.859375 -20.65625 C 11.960938 -21.195312 12.035156 -21.59375 12.078125 -21.84375 C 12.078125 -22.300781 12.054688 -22.550781 12.015625 -22.59375 C 11.929688 -22.59375 11.660156 -22.425781 11.203125 -22.09375 C 10.160156 -21.132812 8.992188 -19.882812 7.703125 -18.34375 C 6.410156 -16.925781 5.28125 -15.816406 4.3125 -15.015625 C 3.8125 -14.597656 3.351562 -14.304688 2.9375 -14.140625 C 1.5625 -13.597656 0.707031 -14.035156 0.375 -15.453125 C 0.0390625 -16.628906 0.164062 -18.050781 0.75 -19.71875 C 0.789062 -19.800781 0.914062 -19.945312 1.125 -20.15625 C 1.25 -20.238281 1.394531 -20.25 1.5625 -20.1875 C 1.726562 -20.125 1.832031 -20.03125 1.875 -19.90625 L 1.9375 -19.28125 C 1.894531 -18.90625 1.875 -18.21875 1.875 -17.21875 L 1.875 -16.21875 C 1.914062 -15.414062 2.332031 -15.160156 3.125 -15.453125 C 3.539062 -15.628906 4.039062 -15.945312 4.625 -16.40625 C 5.132812 -16.78125 5.847656 -17.425781 6.765625 -18.34375 C 7.429688 -19.050781 8.472656 -20.113281 9.890625 -21.53125 C 10.179688 -21.863281 10.660156 -22.320312 11.328125 -22.90625 C 11.367188 -22.945312 11.578125 -23.09375 11.953125 -23.34375 C 12.328125 -23.507812 12.554688 -23.382812 12.640625 -22.96875 L 12.640625 -22.59375 C 12.640625 -21.96875 12.597656 -21.507812 12.515625 -21.21875 C 12.347656 -19.925781 11.992188 -17.523438 11.453125 -14.015625 C 11.410156 -13.929688 11.390625 -13.804688 11.390625 -13.640625 C 11.390625 -13.472656 11.390625 -13.367188 11.390625 -13.328125 C 11.597656 -13.285156 11.828125 -13.390625 12.078125 -13.640625 C 13.742188 -15.316406 15.6875 -17.15625 17.90625 -19.15625 L 18.65625 -19.71875 C 18.78125 -19.757812 18.863281 -19.738281 18.90625 -19.65625 L 18.90625 -19.46875 L 18.53125 -19.09375 C 17.988281 -18.550781 17.570312 -18.15625 17.28125 -17.90625 C 15.269531 -16.144531 13.472656 -14.453125 11.890625 -12.828125 C 11.347656 -12.285156 11.015625 -11.640625 10.890625 -10.890625 C 10.054688 -6.378906 9.140625 -2.664062 8.140625 0.25 C 7.515625 2.039062 6.953125 3.4375 6.453125 4.4375 C 5.828125 5.738281 4.925781 6.992188 3.75 8.203125 C 2.875 9.078125 2 9.703125 1.125 10.078125 C 0.75 10.242188 0.394531 10.347656 0.0625 10.390625 Z M 0.1875 9.765625 L 1.125 9.390625 C 1.914062 9.015625 2.582031 8.515625 3.125 7.890625 C 4.289062 6.679688 5.191406 5.425781 5.828125 4.125 C 6.617188 2.5 7.222656 1.039062 7.640625 -0.25 C 8.472656 -2.582031 9.285156 -5.796875 10.078125 -9.890625 C 10.160156 -10.265625 10.160156 -10.535156 10.078125 -10.703125 C 9.953125 -10.660156 9.847656 -10.609375 9.765625 -10.546875 C 9.679688 -10.484375 9.597656 -10.390625 9.515625 -10.265625 C 9.429688 -10.140625 9.367188 -10.054688 9.328125 -10.015625 L 6.265625 -6.265625 C 3.960938 -3.296875 2.0625 -0.394531 0.5625 2.4375 C -0.269531 4.019531 -0.851562 5.566406 -1.1875 7.078125 C -1.3125 7.578125 -1.375 8.078125 -1.375 8.578125 C -1.332031 9.578125 -0.8125 9.972656 0.1875 9.765625 Z M 0.1875 9.765625 "/></g></g></g><g clip-path="url(#1a944cde70)"><path fill="#060606" d="M 94.964844 140.4375 L 280.035156 140.4375 L 280.035156 158.042969 L 94.964844 158.042969 Z M 94.964844 140.4375 " fill-opacity="1" fill-rule="nonzero"/></g><g fill="#fbfaf9" fill-opacity="1"><g transform="translate(146.525129, 152.186036)"><g><path d="M 5.078125 0 L 2.984375 -2.8125 L 1.90625 -1.625 L 1.90625 0 L 0.84375 0 L 0.84375 -6.359375 L 1.90625 -6.359375 L 1.90625 -3.078125 L 4.953125 -6.359375 L 6.21875 -6.359375 L 3.75 -3.640625 L 6.375 0 Z M 5.078125 0 "/></g></g></g><g fill="#fbfaf9" fill-opacity="1"><g transform="translate(158.06137, 152.186036)"><g><path d="M 1.90625 0 L 0.84375 0 L 0.84375 -6.359375 L 1.90625 -6.359375 Z M 1.90625 0 "/></g></g></g><g fill="#fbfaf9" fill-opacity="1"><g transform="translate(165.814094, 152.186036)"><g><path d="M 5.1875 -5.40625 L 3.171875 -5.40625 L 3.171875 0 L 2.09375 0 L 2.09375 -5.40625 L 0.078125 -5.40625 L 0.078125 -6.359375 L 5.1875 -6.359375 Z M 5.1875 -5.40625 "/></g></g></g><g fill="#fbfaf9" fill-opacity="1"><g transform="translate(176.086127, 152.186036)"><g><path d="M 3.65625 -6.390625 C 4.101562 -6.390625 4.539062 -6.300781 4.96875 -6.125 C 5.394531 -5.957031 5.765625 -5.71875 6.078125 -5.40625 L 5.453125 -4.625 C 5.222656 -4.875 4.945312 -5.070312 4.625 -5.21875 C 4.3125 -5.363281 3.992188 -5.4375 3.671875 -5.4375 C 3.035156 -5.4375 2.5 -5.21875 2.0625 -4.78125 C 1.625 -4.351562 1.40625 -3.828125 1.40625 -3.203125 C 1.40625 -2.566406 1.625 -2.03125 2.0625 -1.59375 C 2.5 -1.164062 3.035156 -0.953125 3.671875 -0.953125 C 4.335938 -0.953125 4.929688 -1.203125 5.453125 -1.703125 L 6.078125 -1 C 5.753906 -0.675781 5.375 -0.421875 4.9375 -0.234375 C 4.5 -0.046875 4.0625 0.046875 3.625 0.046875 C 2.6875 0.046875 1.898438 -0.257812 1.265625 -0.875 C 0.628906 -1.5 0.3125 -2.269531 0.3125 -3.1875 C 0.3125 -4.09375 0.632812 -4.851562 1.28125 -5.46875 C 1.925781 -6.082031 2.71875 -6.390625 3.65625 -6.390625 Z M 3.65625 -6.390625 "/></g></g></g><g fill="#fbfaf9" fill-opacity="1"><g transform="translate(187.43137, 152.186036)"><g><path d="M 6.359375 0 L 5.28125 0 L 5.28125 -2.640625 L 1.90625 -2.640625 L 1.90625 0 L 0.84375 0 L 0.84375 -6.359375 L 1.90625 -6.359375 L 1.90625 -3.59375 L 5.28125 -3.59375 L 5.28125 -6.359375 L 6.359375 -6.359375 Z M 6.359375 0 "/></g></g></g><g fill="#fbfaf9" fill-opacity="1"><g transform="translate(199.631543, 152.186036)"><g><path d="M 5.390625 -5.40625 L 1.90625 -5.40625 L 1.90625 -3.6875 L 5.015625 -3.6875 L 5.015625 -2.71875 L 1.90625 -2.71875 L 1.90625 -0.96875 L 5.5 -0.96875 L 5.5 0 L 0.84375 0 L 0.84375 -6.359375 L 5.390625 -6.359375 Z M 5.390625 -5.40625 "/></g></g></g><g fill="#fbfaf9" fill-opacity="1"><g transform="translate(210.603897, 152.186036)"><g><path d="M 6.359375 0 L 5.296875 0 L 1.90625 -4.5625 L 1.90625 0 L 0.84375 0 L 0.84375 -6.359375 L 1.890625 -6.359375 L 5.296875 -1.796875 L 5.296875 -6.359375 L 6.359375 -6.359375 Z M 6.359375 0 "/></g></g></g><g fill="#fbfaf9" fill-opacity="1"><g transform="translate(222.813167, 152.186036)"><g><path d="M 2.921875 -6.40625 C 3.753906 -6.40625 4.5 -6.1875 5.15625 -5.75 L 4.703125 -4.8125 C 4.054688 -5.207031 3.4375 -5.40625 2.84375 -5.40625 C 2.519531 -5.40625 2.265625 -5.347656 2.078125 -5.234375 C 1.898438 -5.117188 1.8125 -4.953125 1.8125 -4.734375 C 1.8125 -4.523438 1.894531 -4.34375 2.0625 -4.1875 C 2.226562 -4.039062 2.4375 -3.929688 2.6875 -3.859375 C 2.945312 -3.796875 3.222656 -3.710938 3.515625 -3.609375 C 3.816406 -3.503906 4.09375 -3.390625 4.34375 -3.265625 C 4.601562 -3.148438 4.816406 -2.96875 4.984375 -2.71875 C 5.148438 -2.46875 5.234375 -2.160156 5.234375 -1.796875 C 5.234375 -1.242188 5.007812 -0.800781 4.5625 -0.46875 C 4.125 -0.132812 3.550781 0.03125 2.84375 0.03125 C 2.351562 0.03125 1.878906 -0.0546875 1.421875 -0.234375 C 0.972656 -0.421875 0.578125 -0.664062 0.234375 -0.96875 L 0.703125 -1.90625 C 1.023438 -1.601562 1.378906 -1.367188 1.765625 -1.203125 C 2.148438 -1.046875 2.515625 -0.96875 2.859375 -0.96875 C 3.234375 -0.96875 3.523438 -1.035156 3.734375 -1.171875 C 3.941406 -1.304688 4.046875 -1.5 4.046875 -1.75 C 4.046875 -1.96875 3.957031 -2.148438 3.78125 -2.296875 C 3.613281 -2.441406 3.40625 -2.550781 3.15625 -2.625 C 2.90625 -2.695312 2.628906 -2.78125 2.328125 -2.875 C 2.023438 -2.976562 1.75 -3.082031 1.5 -3.1875 C 1.25 -3.300781 1.035156 -3.484375 0.859375 -3.734375 C 0.691406 -3.984375 0.609375 -4.285156 0.609375 -4.640625 C 0.609375 -5.179688 0.816406 -5.609375 1.234375 -5.921875 C 1.660156 -6.242188 2.222656 -6.40625 2.921875 -6.40625 Z M 2.921875 -6.40625 "/></g></g></g></svg>