<svg xmlns="http://www.w3.org/2000/svg" xmlns:xlink="http://www.w3.org/1999/xlink" width="500" zoomAndPan="magnify" viewBox="0 0 375 374.999991" height="500" preserveAspectRatio="xMidYMid meet" version="1.0"><defs><g/><clipPath id="cf549da3f0"><path d="M 23.476562 126.882812 L 351.21875 126.882812 L 351.21875 236.382812 L 23.476562 236.382812 Z M 23.476562 126.882812 " clip-rule="nonzero"/></clipPath><clipPath id="beffa6ea45"><path d="M 64.332031 224.683594 L 310.667969 224.683594 L 310.667969 248.117188 L 64.332031 248.117188 Z M 64.332031 224.683594 " clip-rule="nonzero"/></clipPath></defs><g clip-path="url(#cf549da3f0)"><path stroke-linecap="butt" transform="matrix(0.74933, 0, 0, 0.74992, 23.475378, 126.883321)" fill="none" stroke-linejoin="miter" d="M 0.00158032 -0.00067843 L 437.381811 -0.00067843 L 437.381811 146.014951 L 0.00158032 146.014951 Z M 0.00158032 -0.00067843 " stroke="#fbfaf9" stroke-width="2" stroke-opacity="1" stroke-miterlimit="4"/></g><g fill="#fbfaf9" fill-opacity="1"><g transform="translate(111.044668, 198.758073)"><g><path d="M 14.84375 -34.390625 C 13.644531 -34.328125 12.769531 -34.191406 12.21875 -33.984375 C 11.664062 -33.785156 11.289062 -33.398438 11.09375 -32.828125 C 10.894531 -32.265625 10.796875 -31.351562 10.796875 -30.09375 L 10.796875 -5.296875 C 10.796875 -4.035156 10.894531 -3.117188 11.09375 -2.546875 C 11.289062 -1.984375 11.664062 -1.597656 12.21875 -1.390625 C 12.769531 -1.191406 13.644531 -1.0625 14.84375 -1 L 14.84375 0 C 13.3125 -0.101562 11.195312 -0.15625 8.5 -0.15625 C 5.632812 -0.15625 3.5 -0.101562 2.09375 0 L 2.09375 -1 C 3.300781 -1.0625 4.175781 -1.191406 4.71875 -1.390625 C 5.269531 -1.597656 5.644531 -1.984375 5.84375 -2.546875 C 6.039062 -3.117188 6.140625 -4.035156 6.140625 -5.296875 L 6.140625 -30.09375 C 6.140625 -31.351562 6.039062 -32.265625 5.84375 -32.828125 C 5.644531 -33.398438 5.269531 -33.785156 4.71875 -33.984375 C 4.175781 -34.191406 3.300781 -34.328125 2.09375 -34.390625 L 2.09375 -35.390625 C 3.5 -35.285156 5.632812 -35.234375 8.5 -35.234375 C 11.164062 -35.234375 13.28125 -35.285156 14.84375 -35.390625 Z M 14.84375 -34.390625 "/></g></g></g><g fill="#fbfaf9" fill-opacity="1"><g transform="translate(126.488371, 198.758073)"><g><path d="M 9.5 -25.6875 L 16.890625 -25.6875 L 16.890625 -24.6875 L 9.5 -24.6875 L 9.5 -5.34375 C 9.5 -3.84375 9.769531 -2.757812 10.3125 -2.09375 C 10.863281 -1.425781 11.660156 -1.09375 12.703125 -1.09375 C 13.734375 -1.09375 14.613281 -1.507812 15.34375 -2.34375 C 16.070312 -3.175781 16.6875 -4.546875 17.1875 -6.453125 L 18.1875 -6.203125 C 17.351562 -1.597656 15.191406 0.703125 11.703125 0.703125 C 10.566406 0.703125 9.628906 0.566406 8.890625 0.296875 C 8.160156 0.0351562 7.515625 -0.378906 6.953125 -0.953125 C 6.210938 -1.679688 5.703125 -2.578125 5.421875 -3.640625 C 5.140625 -4.710938 5 -6.148438 5 -7.953125 L 5 -24.6875 L 0.203125 -24.6875 L 0.203125 -25.6875 L 5 -25.6875 L 5 -33.34375 C 6.863281 -33.40625 8.363281 -33.640625 9.5 -34.046875 Z M 9.5 -25.6875 "/></g></g></g><g fill="#fbfaf9" fill-opacity="1"><g transform="translate(142.681777, 198.758073)"><g><path d="M 5.890625 -36.09375 C 7.191406 -36.09375 8.175781 -35.554688 8.84375 -34.484375 C 9.414062 -33.585938 9.703125 -32.488281 9.703125 -31.1875 C 9.703125 -29.519531 9.273438 -28.019531 8.421875 -26.6875 C 7.566406 -25.351562 6.273438 -24.289062 4.546875 -23.5 L 4.09375 -24.390625 C 5.125 -24.828125 6.015625 -25.507812 6.765625 -26.4375 C 7.515625 -27.375 7.890625 -28.328125 7.890625 -29.296875 C 7.890625 -29.691406 7.84375 -30.039062 7.75 -30.34375 C 7.21875 -29.90625 6.597656 -29.6875 5.890625 -29.6875 C 4.992188 -29.6875 4.238281 -29.976562 3.625 -30.5625 C 3.007812 -31.144531 2.703125 -31.921875 2.703125 -32.890625 C 2.703125 -33.785156 3.007812 -34.539062 3.625 -35.15625 C 4.238281 -35.78125 4.992188 -36.09375 5.890625 -36.09375 Z M 5.890625 -36.09375 "/></g></g></g><g fill="#fbfaf9" fill-opacity="1"><g transform="translate(153.427315, 198.758073)"><g><path d="M 10.390625 -26.4375 C 11.597656 -26.4375 12.664062 -26.253906 13.59375 -25.890625 C 14.53125 -25.523438 15.28125 -25.09375 15.84375 -24.59375 C 16.207031 -24.320312 16.507812 -24.1875 16.75 -24.1875 C 17.34375 -24.1875 17.707031 -24.921875 17.84375 -26.390625 L 19 -26.390625 C 18.863281 -24.753906 18.796875 -21.921875 18.796875 -17.890625 L 17.640625 -17.890625 C 17.273438 -20.085938 16.566406 -21.898438 15.515625 -23.328125 C 14.472656 -24.765625 12.914062 -25.484375 10.84375 -25.484375 C 9.644531 -25.484375 8.660156 -25.140625 7.890625 -24.453125 C 7.128906 -23.773438 6.75 -22.835938 6.75 -21.640625 C 6.75 -20.472656 7.144531 -19.5 7.9375 -18.71875 C 8.738281 -17.9375 10.023438 -16.992188 11.796875 -15.890625 C 12.097656 -15.722656 12.546875 -15.441406 13.140625 -15.046875 C 14.671875 -14.046875 15.90625 -13.160156 16.84375 -12.390625 C 17.78125 -11.628906 18.539062 -10.75 19.125 -9.75 C 19.707031 -8.75 20 -7.597656 20 -6.296875 C 20 -4.097656 19.171875 -2.378906 17.515625 -1.140625 C 15.867188 0.0859375 13.847656 0.703125 11.453125 0.703125 C 9.953125 0.703125 8.632812 0.46875 7.5 0 C 6.757812 -0.363281 6.078125 -0.8125 5.453125 -1.34375 C 5.316406 -1.476562 5.164062 -1.546875 5 -1.546875 C 4.769531 -1.546875 4.5625 -1.378906 4.375 -1.046875 C 4.1875 -0.710938 4.046875 -0.25 3.953125 0.34375 L 2.796875 0.34375 C 2.929688 -1.550781 3 -4.878906 3 -9.640625 L 4.15625 -9.640625 C 4.519531 -6.515625 5.179688 -4.175781 6.140625 -2.625 C 7.109375 -1.070312 8.757812 -0.296875 11.09375 -0.296875 C 12.257812 -0.296875 13.289062 -0.675781 14.1875 -1.4375 C 15.09375 -2.207031 15.546875 -3.410156 15.546875 -5.046875 C 15.546875 -6.347656 15.101562 -7.445312 14.21875 -8.34375 C 13.332031 -9.25 11.890625 -10.332031 9.890625 -11.59375 C 8.265625 -12.625 7.007812 -13.472656 6.125 -14.140625 C 5.238281 -14.804688 4.492188 -15.625 3.890625 -16.59375 C 3.296875 -17.5625 3 -18.695312 3 -20 C 3 -22.09375 3.695312 -23.6875 5.09375 -24.78125 C 6.5 -25.882812 8.265625 -26.4375 10.390625 -26.4375 Z M 10.390625 -26.4375 "/></g></g></g><g fill="#fbfaf9" fill-opacity="1"><g transform="translate(193.7917, 212.714825)"><g><path d="M 17.578125 16.90625 C 15.691406 17.632812 14.359375 17.082031 13.578125 15.25 C 13.023438 13.800781 12.96875 12.269531 13.40625 10.65625 C 13.90625 8.332031 14.960938 5.835938 16.578125 3.171875 C 17.796875 1.390625 18.738281 0.0820312 19.40625 -0.75 C 24.1875 -6.863281 27.910156 -11.28125 30.578125 -14 C 30.910156 -14.4375 31.132812 -14.988281 31.25 -15.65625 C 31.738281 -18.9375 31.929688 -22.910156 31.828125 -27.578125 C 31.828125 -29.191406 31.710938 -30.632812 31.484375 -31.90625 C 31.378906 -32.625 31.21875 -33.265625 31 -33.828125 C 30.71875 -34.328125 30.242188 -34.546875 29.578125 -34.484375 C 29.242188 -34.429688 28.800781 -34.238281 28.25 -33.90625 C 27.25 -33.1875 26.382812 -32.460938 25.65625 -31.734375 C 25.101562 -31.179688 24.535156 -30.597656 23.953125 -29.984375 C 23.367188 -29.378906 22.703125 -28.6875 21.953125 -27.90625 C 21.203125 -27.132812 20.632812 -26.523438 20.25 -26.078125 C 17.75 -23.460938 15.523438 -21.296875 13.578125 -19.578125 C 11.910156 -18.128906 10.578125 -17.128906 9.578125 -16.578125 C 8.742188 -16.128906 7.742188 -15.769531 6.578125 -15.5 C 4.910156 -15.269531 3.578125 -15.851562 2.578125 -17.25 C 2.140625 -17.914062 1.78125 -18.71875 1.5 -19.65625 C 0.832031 -22.101562 0.664062 -24.578125 1 -27.078125 C 2.113281 -34.960938 4.863281 -41.988281 9.25 -48.15625 C 10.582031 -49.9375 12 -51.488281 13.5 -52.8125 C 14.71875 -53.925781 16.050781 -54.734375 17.5 -55.234375 C 19.601562 -56.015625 21.460938 -55.988281 23.078125 -55.15625 C 24.023438 -54.65625 24.773438 -53.988281 25.328125 -53.15625 C 25.609375 -52.65625 25.691406 -52.238281 25.578125 -51.90625 C 25.460938 -51.6875 25.378906 -51.546875 25.328125 -51.484375 C 25.160156 -51.429688 24.992188 -51.488281 24.828125 -51.65625 C 24.378906 -52.257812 24.101562 -52.59375 24 -52.65625 C 22.550781 -53.65625 21.078125 -53.929688 19.578125 -53.484375 C 18.296875 -53.097656 17.019531 -52.460938 15.75 -51.578125 C 14.300781 -50.347656 12.910156 -48.847656 11.578125 -47.078125 C 8.523438 -42.960938 6.191406 -38.015625 4.578125 -32.234375 C 3.640625 -29.078125 3.140625 -26.25 3.078125 -23.75 C 2.972656 -21.96875 3.113281 -20.410156 3.5 -19.078125 C 4.050781 -16.960938 5.359375 -16.1875 7.421875 -16.75 C 8.421875 -17.082031 9.421875 -17.550781 10.421875 -18.15625 C 11.191406 -18.65625 12.351562 -19.570312 13.90625 -20.90625 C 14.6875 -21.570312 17.910156 -24.820312 23.578125 -30.65625 C 23.859375 -30.988281 24.175781 -31.320312 24.53125 -31.65625 C 24.894531 -31.988281 25.296875 -32.375 25.734375 -32.8125 C 26.179688 -33.257812 26.519531 -33.597656 26.75 -33.828125 C 27.46875 -34.429688 28.101562 -34.875 28.65625 -35.15625 C 30.269531 -35.988281 31.4375 -35.570312 32.15625 -33.90625 C 32.601562 -32.625 32.851562 -31.375 32.90625 -30.15625 C 33.125 -26.101562 33.066406 -21.882812 32.734375 -17.5 C 32.734375 -16.9375 32.765625 -16.601562 32.828125 -16.5 L 33.328125 -16.828125 C 35.429688 -18.878906 38.398438 -21.40625 42.234375 -24.40625 L 44.90625 -26.65625 C 45.019531 -26.769531 45.1875 -26.769531 45.40625 -26.65625 C 45.457031 -26.65625 45.484375 -26.570312 45.484375 -26.40625 C 45.484375 -26.238281 45.457031 -26.128906 45.40625 -26.078125 L 45.078125 -25.75 C 44.960938 -25.632812 44.765625 -25.453125 44.484375 -25.203125 C 44.210938 -24.953125 43.992188 -24.769531 43.828125 -24.65625 C 40.328125 -21.769531 38.460938 -20.242188 38.234375 -20.078125 L 33.484375 -15.75 C 32.816406 -15.25 32.398438 -14.414062 32.234375 -13.25 C 31.960938 -10.25 31.269531 -7 30.15625 -3.5 C 28.9375 0.832031 27.269531 5 25.15625 9 C 23.769531 11.71875 21.96875 13.9375 19.75 15.65625 C 19.132812 16.101562 18.410156 16.519531 17.578125 16.90625 Z M 16.5 15.90625 C 16.71875 15.90625 17.101562 15.796875 17.65625 15.578125 C 18.320312 15.296875 19.070312 14.738281 19.90625 13.90625 C 21.632812 12.238281 23.050781 10.269531 24.15625 8 C 27.21875 2.050781 29.300781 -3.945312 30.40625 -10 C 30.6875 -11.382812 30.800781 -12.269531 30.75 -12.65625 C 30.582031 -12.550781 30.164062 -12.191406 29.5 -11.578125 C 26.101562 -7.804688 22.65625 -3.585938 19.15625 1.078125 C 17.9375 2.804688 16.992188 4.304688 16.328125 5.578125 C 15.328125 7.691406 14.660156 9.5 14.328125 11 C 14.046875 12.5 14.15625 13.800781 14.65625 14.90625 C 15.050781 15.738281 15.664062 16.070312 16.5 15.90625 Z M 16.5 15.90625 "/></g></g></g><g fill="#fbfaf9" fill-opacity="1"><g transform="translate(237.611983, 212.714825)"><g><path d="M 5 -16.578125 C 3.832031 -16.691406 3.082031 -17.273438 2.75 -18.328125 C 2.632812 -18.710938 2.578125 -19.378906 2.578125 -20.328125 C 2.640625 -20.828125 2.722656 -21.394531 2.828125 -22.03125 C 2.941406 -22.675781 3.007812 -23.109375 3.03125 -23.328125 C 3.0625 -23.546875 3.0625 -23.796875 3.03125 -24.078125 C 3.007812 -24.359375 2.941406 -24.566406 2.828125 -24.703125 C 2.722656 -24.835938 2.554688 -24.988281 2.328125 -25.15625 C 1.773438 -25.488281 1.273438 -25.90625 0.828125 -26.40625 C -0.222656 -27.738281 -0.0820312 -28.90625 1.25 -29.90625 C 1.695312 -30.1875 2.128906 -30.226562 2.546875 -30.03125 C 2.960938 -29.84375 3.195312 -29.5 3.25 -29 C 3.300781 -28.769531 3.273438 -28.378906 3.171875 -27.828125 C 3.171875 -27.773438 3.03125 -27.414062 2.75 -26.75 C 2.582031 -26.519531 2.609375 -26.296875 2.828125 -26.078125 C 2.992188 -25.910156 3.132812 -25.800781 3.25 -25.75 C 4.195312 -25.019531 4.640625 -23.960938 4.578125 -22.578125 C 4.578125 -22.296875 4.5625 -21.878906 4.53125 -21.328125 C 4.507812 -20.773438 4.5 -20.359375 4.5 -20.078125 C 4.5 -19.742188 4.554688 -19.300781 4.671875 -18.75 C 4.835938 -18.132812 5.253906 -17.828125 5.921875 -17.828125 C 6.359375 -17.878906 6.882812 -18.046875 7.5 -18.328125 C 8.550781 -18.773438 9.601562 -19.441406 10.65625 -20.328125 C 11.15625 -20.710938 12.238281 -21.585938 13.90625 -22.953125 C 15.570312 -24.316406 16.65625 -25.191406 17.15625 -25.578125 C 17.601562 -25.910156 17.96875 -26.160156 18.25 -26.328125 C 18.300781 -26.378906 18.351562 -26.390625 18.40625 -26.359375 C 18.46875 -26.335938 18.5 -26.300781 18.5 -26.25 C 18.601562 -26.132812 18.628906 -26.050781 18.578125 -26 C 18.410156 -25.71875 18.300781 -25.550781 18.25 -25.5 C 17.519531 -24.882812 16.171875 -23.785156 14.203125 -22.203125 C 12.234375 -20.617188 11.050781 -19.6875 10.65625 -19.40625 C 9.71875 -18.570312 8.5 -17.796875 7 -17.078125 C 6.445312 -16.742188 5.78125 -16.578125 5 -16.578125 Z M 1.671875 -27.15625 L 1.828125 -27.25 L 2 -27.328125 C 2.28125 -27.773438 2.421875 -28.21875 2.421875 -28.65625 C 2.421875 -28.769531 2.335938 -28.910156 2.171875 -29.078125 C 2.054688 -29.191406 1.890625 -29.191406 1.671875 -29.078125 C 1.054688 -28.628906 0.972656 -28.070312 1.421875 -27.40625 Z M 1.671875 -27.15625 "/></g></g></g><g fill="#fbfaf9" fill-opacity="1"><g transform="translate(254.523614, 212.714825)"><g><path d="M 9.921875 -22.90625 C 8.691406 -22.570312 7.992188 -23.046875 7.828125 -24.328125 C 7.773438 -24.992188 7.832031 -25.742188 8 -26.578125 C 8.113281 -27.191406 8.140625 -27.582031 8.078125 -27.75 C 7.972656 -27.75 7.863281 -27.71875 7.75 -27.65625 C 7.632812 -27.601562 7.550781 -27.546875 7.5 -27.484375 C 7.445312 -27.429688 7.378906 -27.363281 7.296875 -27.28125 C 7.210938 -27.195312 7.140625 -27.128906 7.078125 -27.078125 C 5.804688 -25.960938 4.640625 -25.15625 3.578125 -24.65625 C 3.191406 -24.4375 2.804688 -24.242188 2.421875 -24.078125 C 1.859375 -23.910156 1.425781 -23.960938 1.125 -24.234375 C 0.820312 -24.515625 0.722656 -24.9375 0.828125 -25.5 C 0.828125 -25.601562 0.882812 -25.820312 1 -26.15625 C 1.332031 -26.9375 1.832031 -27.578125 2.5 -28.078125 C 3.664062 -28.910156 4.832031 -28.910156 6 -28.078125 L 6.078125 -28 L 6.171875 -28 C 6.554688 -27.71875 6.890625 -27.71875 7.171875 -28 L 8.75 -29.578125 C 9.03125 -29.796875 9.253906 -29.820312 9.421875 -29.65625 C 9.585938 -29.488281 9.613281 -29.351562 9.5 -29.25 C 9.445312 -28.800781 9.304688 -28.132812 9.078125 -27.25 C 8.804688 -26.1875 8.695312 -25.210938 8.75 -24.328125 C 8.800781 -23.878906 9.078125 -23.6875 9.578125 -23.75 C 10.410156 -23.851562 12.632812 -24.769531 16.25 -26.5 C 16.46875 -26.5 16.601562 -26.441406 16.65625 -26.328125 C 16.769531 -26.046875 16.632812 -25.796875 16.25 -25.578125 C 13.351562 -24.128906 11.242188 -23.238281 9.921875 -22.90625 Z M 2.828125 -25.15625 C 3.441406 -25.382812 4.082031 -25.691406 4.75 -26.078125 C 5.132812 -26.359375 5.359375 -26.582031 5.421875 -26.75 C 5.472656 -26.851562 5.398438 -26.945312 5.203125 -27.03125 C 5.015625 -27.113281 4.78125 -27.15625 4.5 -27.15625 C 4.050781 -27.050781 3.71875 -26.941406 3.5 -26.828125 C 2.832031 -26.328125 2.390625 -25.800781 2.171875 -25.25 C 2.441406 -25.019531 2.660156 -24.988281 2.828125 -25.15625 Z M 2.828125 -25.15625 "/></g></g></g><g fill="#fbfaf9" fill-opacity="1"><g transform="translate(269.51915, 212.714825)"><g><path d="M 3.671875 -17.65625 C 2.835938 -17.15625 2.171875 -17.351562 1.671875 -18.25 C 1.554688 -18.46875 1.441406 -18.800781 1.328125 -19.25 C 0.773438 -21.519531 0.664062 -23.710938 1 -25.828125 C 1.113281 -26.441406 1.335938 -26.773438 1.671875 -26.828125 C 2.171875 -26.828125 2.421875 -26.46875 2.421875 -25.75 C 2.472656 -25.25 2.507812 -24.691406 2.53125 -24.078125 C 2.5625 -23.460938 2.59375 -22.796875 2.625 -22.078125 C 2.65625 -21.359375 2.671875 -20.800781 2.671875 -20.40625 C 2.671875 -20.238281 2.695312 -19.988281 2.75 -19.65625 C 2.800781 -19.320312 2.828125 -19.070312 2.828125 -18.90625 C 2.941406 -18.40625 3.191406 -18.296875 3.578125 -18.578125 C 3.972656 -18.691406 4.335938 -19.023438 4.671875 -19.578125 C 6.109375 -21.578125 7.21875 -23.4375 8 -25.15625 C 8.71875 -26.71875 9.160156 -27.664062 9.328125 -28 C 9.773438 -28.71875 10.300781 -28.851562 10.90625 -28.40625 L 13.40625 -27.078125 C 14.6875 -26.410156 16.019531 -26.1875 17.40625 -26.40625 C 17.632812 -26.46875 17.914062 -26.5 18.25 -26.5 C 18.75 -26.5 19.050781 -26.441406 19.15625 -26.328125 C 19.269531 -26.210938 19.160156 -26.070312 18.828125 -25.90625 C 18.660156 -25.851562 18.492188 -25.800781 18.328125 -25.75 C 16.328125 -25.25 14.410156 -25.5 12.578125 -26.5 C 12.296875 -26.601562 11.890625 -26.804688 11.359375 -27.109375 C 10.835938 -27.421875 10.441406 -27.660156 10.171875 -27.828125 C 9.890625 -27.546875 9.5 -26.90625 9 -25.90625 C 8.332031 -24.300781 7.191406 -22.21875 5.578125 -19.65625 C 5.242188 -19.101562 4.941406 -18.6875 4.671875 -18.40625 C 4.441406 -18.070312 4.109375 -17.820312 3.671875 -17.65625 Z M 3.671875 -17.65625 "/></g></g></g><g fill="#fbfaf9" fill-opacity="1"><g transform="translate(287.013937, 212.714825)"><g><path d="M 0.078125 13.828125 C -0.640625 13.941406 -1.234375 13.800781 -1.703125 13.40625 C -2.179688 13.019531 -2.445312 12.46875 -2.5 11.75 C -2.5 10.96875 -2.414062 10.242188 -2.25 9.578125 C -1.863281 7.742188 -1.222656 5.910156 -0.328125 4.078125 C 1.222656 0.859375 3.523438 -2.804688 6.578125 -6.921875 C 7.972656 -8.804688 10.164062 -11.523438 13.15625 -15.078125 C 13.71875 -15.742188 14.082031 -16.46875 14.25 -17.25 C 14.300781 -17.46875 14.71875 -20.328125 15.5 -25.828125 C 15.550781 -26.210938 15.644531 -26.765625 15.78125 -27.484375 C 15.925781 -28.210938 16.023438 -28.742188 16.078125 -29.078125 C 16.078125 -29.691406 16.050781 -30.023438 16 -30.078125 C 15.882812 -30.078125 15.519531 -29.851562 14.90625 -29.40625 C 13.519531 -28.132812 11.96875 -26.46875 10.25 -24.40625 C 8.53125 -22.519531 7.03125 -21.050781 5.75 -20 C 5.082031 -19.4375 4.472656 -19.046875 3.921875 -18.828125 C 2.085938 -18.109375 0.945312 -18.691406 0.5 -20.578125 C 0.0507812 -22.128906 0.21875 -24.019531 1 -26.25 C 1.050781 -26.351562 1.21875 -26.546875 1.5 -26.828125 C 1.664062 -26.941406 1.859375 -26.957031 2.078125 -26.875 C 2.304688 -26.789062 2.445312 -26.664062 2.5 -26.5 L 2.578125 -25.65625 C 2.523438 -25.15625 2.5 -24.238281 2.5 -22.90625 L 2.5 -21.578125 C 2.550781 -20.523438 3.109375 -20.191406 4.171875 -20.578125 C 4.722656 -20.796875 5.390625 -21.210938 6.171875 -21.828125 C 6.835938 -22.328125 7.78125 -23.1875 9 -24.40625 C 9.882812 -25.351562 11.269531 -26.769531 13.15625 -28.65625 C 13.550781 -29.101562 14.191406 -29.71875 15.078125 -30.5 C 15.128906 -30.550781 15.40625 -30.742188 15.90625 -31.078125 C 16.40625 -31.296875 16.710938 -31.128906 16.828125 -30.578125 L 16.828125 -30.078125 C 16.828125 -29.242188 16.769531 -28.632812 16.65625 -28.25 C 16.4375 -26.519531 15.96875 -23.320312 15.25 -18.65625 C 15.1875 -18.550781 15.15625 -18.382812 15.15625 -18.15625 C 15.15625 -17.9375 15.15625 -17.800781 15.15625 -17.75 C 15.4375 -17.6875 15.742188 -17.820312 16.078125 -18.15625 C 18.296875 -20.382812 20.878906 -22.832031 23.828125 -25.5 L 24.828125 -26.25 C 24.992188 -26.300781 25.101562 -26.269531 25.15625 -26.15625 L 25.15625 -25.90625 L 24.65625 -25.40625 C 23.9375 -24.6875 23.382812 -24.160156 23 -23.828125 C 20.332031 -21.492188 17.941406 -19.242188 15.828125 -17.078125 C 15.109375 -16.359375 14.664062 -15.5 14.5 -14.5 C 13.382812 -8.5 12.160156 -3.554688 10.828125 0.328125 C 9.992188 2.722656 9.242188 4.585938 8.578125 5.921875 C 7.742188 7.640625 6.550781 9.300781 5 10.90625 C 3.832031 12.070312 2.664062 12.90625 1.5 13.40625 C 1 13.632812 0.523438 13.773438 0.078125 13.828125 Z M 0.25 13 L 1.5 12.5 C 2.550781 12 3.441406 11.332031 4.171875 10.5 C 5.722656 8.882812 6.914062 7.21875 7.75 5.5 C 8.800781 3.332031 9.609375 1.390625 10.171875 -0.328125 C 11.273438 -3.441406 12.351562 -7.71875 13.40625 -13.15625 C 13.519531 -13.65625 13.519531 -14.019531 13.40625 -14.25 C 13.238281 -14.1875 13.097656 -14.113281 12.984375 -14.03125 C 12.878906 -13.945312 12.769531 -13.820312 12.65625 -13.65625 C 12.550781 -13.488281 12.46875 -13.378906 12.40625 -13.328125 L 8.328125 -8.328125 C 5.273438 -4.390625 2.75 -0.53125 0.75 3.25 C -0.363281 5.363281 -1.140625 7.421875 -1.578125 9.421875 C -1.742188 10.085938 -1.828125 10.75 -1.828125 11.40625 C -1.773438 12.738281 -1.082031 13.269531 0.25 13 Z M 0.25 13 "/></g></g></g><g clip-path="url(#beffa6ea45)"><path fill="#060606" d="M 64.332031 224.683594 L 310.667969 224.683594 L 310.667969 248.117188 L 64.332031 248.117188 Z M 64.332031 224.683594 " fill-opacity="1" fill-rule="nonzero"/></g><g fill="#fbfaf9" fill-opacity="1"><g transform="translate(132.962099, 240.322427)"><g><path d="M 6.765625 0 L 3.984375 -3.734375 L 2.546875 -2.15625 L 2.546875 0 L 1.109375 0 L 1.109375 -8.46875 L 2.546875 -8.46875 L 2.546875 -4.09375 L 6.59375 -8.46875 L 8.265625 -8.46875 L 4.984375 -4.859375 L 8.484375 0 Z M 6.765625 0 "/></g></g></g><g fill="#fbfaf9" fill-opacity="1"><g transform="translate(148.316933, 240.322427)"><g><path d="M 2.546875 0 L 1.109375 0 L 1.109375 -8.46875 L 2.546875 -8.46875 Z M 2.546875 0 "/></g></g></g><g fill="#fbfaf9" fill-opacity="1"><g transform="translate(158.635876, 240.322427)"><g><path d="M 6.90625 -7.1875 L 4.21875 -7.1875 L 4.21875 0 L 2.78125 0 L 2.78125 -7.1875 L 0.109375 -7.1875 L 0.109375 -8.46875 L 6.90625 -8.46875 Z M 6.90625 -7.1875 "/></g></g></g><g fill="#fbfaf9" fill-opacity="1"><g transform="translate(172.308039, 240.322427)"><g><path d="M 4.875 -8.515625 C 5.46875 -8.515625 6.046875 -8.398438 6.609375 -8.171875 C 7.179688 -7.941406 7.675781 -7.617188 8.09375 -7.203125 L 7.25 -6.15625 C 6.945312 -6.488281 6.582031 -6.75 6.15625 -6.9375 C 5.738281 -7.132812 5.316406 -7.234375 4.890625 -7.234375 C 4.046875 -7.234375 3.328125 -6.945312 2.734375 -6.375 C 2.148438 -5.800781 1.859375 -5.097656 1.859375 -4.265625 C 1.859375 -3.421875 2.148438 -2.707031 2.734375 -2.125 C 3.328125 -1.550781 4.046875 -1.265625 4.890625 -1.265625 C 5.773438 -1.265625 6.5625 -1.601562 7.25 -2.28125 L 8.09375 -1.328125 C 7.664062 -0.898438 7.160156 -0.5625 6.578125 -0.3125 C 5.992188 -0.0625 5.40625 0.0625 4.8125 0.0625 C 3.570312 0.0625 2.523438 -0.347656 1.671875 -1.171875 C 0.828125 -2.003906 0.40625 -3.03125 0.40625 -4.25 C 0.40625 -5.445312 0.832031 -6.457031 1.6875 -7.28125 C 2.550781 -8.101562 3.613281 -8.515625 4.875 -8.515625 Z M 4.875 -8.515625 "/></g></g></g><g fill="#fbfaf9" fill-opacity="1"><g transform="translate(187.408655, 240.322427)"><g><path d="M 8.46875 0 L 7.03125 0 L 7.03125 -3.515625 L 2.546875 -3.515625 L 2.546875 0 L 1.109375 0 L 1.109375 -8.46875 L 2.546875 -8.46875 L 2.546875 -4.796875 L 7.03125 -4.796875 L 7.03125 -8.46875 L 8.46875 -8.46875 Z M 8.46875 0 "/></g></g></g><g fill="#fbfaf9" fill-opacity="1"><g transform="translate(203.64719, 240.322427)"><g><path d="M 7.171875 -7.1875 L 2.546875 -7.1875 L 2.546875 -4.90625 L 6.6875 -4.90625 L 6.6875 -3.625 L 2.546875 -3.625 L 2.546875 -1.28125 L 7.3125 -1.28125 L 7.3125 0 L 1.109375 0 L 1.109375 -8.46875 L 7.171875 -8.46875 Z M 7.171875 -7.1875 "/></g></g></g><g fill="#fbfaf9" fill-opacity="1"><g transform="translate(218.251487, 240.322427)"><g><path d="M 8.46875 0 L 7.0625 0 L 2.546875 -6.078125 L 2.546875 0 L 1.109375 0 L 1.109375 -8.46875 L 2.515625 -8.46875 L 7.0625 -2.390625 L 7.0625 -8.46875 L 8.46875 -8.46875 Z M 8.46875 0 "/></g></g></g><g fill="#fbfaf9" fill-opacity="1"><g transform="translate(234.50213, 240.322427)"><g><path d="M 3.90625 -8.53125 C 5 -8.53125 5.984375 -8.242188 6.859375 -7.671875 L 6.265625 -6.40625 C 5.410156 -6.925781 4.585938 -7.1875 3.796875 -7.1875 C 3.359375 -7.1875 3.015625 -7.109375 2.765625 -6.953125 C 2.523438 -6.804688 2.40625 -6.59375 2.40625 -6.3125 C 2.40625 -6.03125 2.519531 -5.789062 2.75 -5.59375 C 2.976562 -5.394531 3.257812 -5.25 3.59375 -5.15625 C 3.9375 -5.0625 4.304688 -4.941406 4.703125 -4.796875 C 5.097656 -4.660156 5.460938 -4.507812 5.796875 -4.34375 C 6.140625 -4.1875 6.421875 -3.941406 6.640625 -3.609375 C 6.859375 -3.273438 6.96875 -2.867188 6.96875 -2.390625 C 6.96875 -1.648438 6.671875 -1.054688 6.078125 -0.609375 C 5.484375 -0.171875 4.71875 0.046875 3.78125 0.046875 C 3.132812 0.046875 2.507812 -0.0703125 1.90625 -0.3125 C 1.300781 -0.550781 0.769531 -0.878906 0.3125 -1.296875 L 0.9375 -2.53125 C 1.363281 -2.132812 1.832031 -1.828125 2.34375 -1.609375 C 2.851562 -1.398438 3.335938 -1.296875 3.796875 -1.296875 C 4.296875 -1.296875 4.6875 -1.382812 4.96875 -1.5625 C 5.25 -1.75 5.390625 -2.003906 5.390625 -2.328125 C 5.390625 -2.617188 5.273438 -2.863281 5.046875 -3.0625 C 4.816406 -3.257812 4.53125 -3.398438 4.1875 -3.484375 C 3.851562 -3.578125 3.488281 -3.691406 3.09375 -3.828125 C 2.695312 -3.960938 2.328125 -4.101562 1.984375 -4.25 C 1.648438 -4.40625 1.367188 -4.644531 1.140625 -4.96875 C 0.921875 -5.300781 0.8125 -5.703125 0.8125 -6.171875 C 0.8125 -6.890625 1.09375 -7.460938 1.65625 -7.890625 C 2.21875 -8.316406 2.96875 -8.53125 3.90625 -8.53125 Z M 3.90625 -8.53125 "/></g></g></g></svg>